<svg fill="#000000" height="200px" width="200px" version="1.1" id="Capa_1" xmlns="http://www.w3.org/2000/svg" xmlns:xlink="http://www.w3.org/1999/xlink" viewBox="0 0 371.666 371.666" xml:space="preserve"><g id="SVGRepo_bgCarrier" stroke-width="0"></g><g id="SVGRepo_tracerCarrier" stroke-linecap="round" stroke-linejoin="round"></g><g id="SVGRepo_iconCarrier"> <g id="XMLID_1267_"> <path id="XMLID_1270_" d="M195.833,258.333h-20v53.333h-60v60h140v-60h-60V258.333z M235.833,351.666h-100v-20h100V351.666z"></path> <path id="XMLID_1281_" d="M185.833,0C114.671,0,56.777,57.895,56.777,129.056c0,71.162,57.895,129.057,129.056,129.057 s129.056-57.895,129.056-129.057C314.889,57.895,256.995,0,185.833,0z M185.833,238.112c-60.134,0-109.056-48.923-109.056-109.057 S125.699,20,185.833,20s109.056,48.922,109.056,109.056S245.967,238.112,185.833,238.112z"></path> <polygon id="XMLID_1292_" points="209.976,119.056 251.943,77.088 237.801,62.945 195.833,104.913 195.833,45.562 175.833,45.562 175.833,104.913 133.865,62.945 119.723,77.088 161.69,119.056 102.339,119.056 102.339,139.056 161.69,139.056 119.723,181.023 133.865,195.166 175.833,153.198 175.833,212.55 195.833,212.55 195.833,153.198 237.801,195.166 251.943,181.023 209.976,139.056 269.327,139.056 269.327,119.056 "></polygon> </g> </g></svg>