<svg fill="#000000" height="200px" width="200px" version="1.1" id="Capa_1" xmlns="http://www.w3.org/2000/svg" xmlns:xlink="http://www.w3.org/1999/xlink" viewBox="0 0 490 490" xml:space="preserve"><g id="SVGRepo_bgCarrier" stroke-width="0"></g><g id="SVGRepo_tracerCarrier" stroke-linecap="round" stroke-linejoin="round"></g><g id="SVGRepo_iconCarrier"> <path id="XMLID_169_" d="M245,60c-46.869,0-85,38.131-85,85s38.131,85,85,85s85-38.131,85-85S291.869,60,245,60z M245,200 c-30.327,0-55-24.673-55-55c0-25.129,16.939-46.376,40-52.921V145c0,8.284,6.716,15,15,15s15-6.716,15-15V92.079 c23.061,6.545,40,27.792,40,52.921C300,175.327,275.327,200,245,200z M439.952,323.804L419.998,74.369 C419.659,33.301,386.146,0,345,0H145c-41.146,0-74.659,33.301-74.998,74.369L50.048,323.804C50.016,324.202,50,324.601,50,325 c0,24.681,19.972,44.786,44.604,44.998c6.484,18.349,19.611,34.816,37.891,47.247c16.459,11.193,36.377,18.55,57.505,21.411V475 c0,8.284,6.716,15,15,15s15-6.716,15-15v-35h50v35c0,8.284,6.716,15,15,15s15-6.716,15-15v-36.345 c21.128-2.861,41.046-10.218,57.505-21.411c18.28-12.431,31.407-28.897,37.891-47.247C420.028,369.786,440,349.681,440,325 C440,324.601,439.984,324.202,439.952,323.804z M280,410h-70c-36.302,0-68.368-16.303-82.437-40h234.874 C348.368,393.697,316.302,410,280,410z M395,340H95c-8.105,0-14.729-6.461-14.992-14.503L99.952,76.196 C99.984,75.798,100,75.399,100,75c0-24.813,20.187-45,45-45h200c24.813,0,45,20.187,45,45c0,0.399,19.992,250.497,19.992,250.497 C409.729,333.539,403.105,340,395,340z"></path> </g></svg>