<svg xmlns="http://www.w3.org/2000/svg" xmlns:xlink="http://www.w3.org/1999/xlink" version="1.1" x="0px" y="0px" viewBox="0 0 160 200" style="enable-background:new 0 0 160 160;" xml:space="preserve"><path d="M115.877,126.723c-1.677,0-3.041,1.364-3.041,3.041c0,1.678,1.364,3.042,3.041,3.042c1.678,0,3.042-1.364,3.042-3.042  C118.919,128.087,117.555,126.723,115.877,126.723z"/><path d="M124.44,126.723c-1.678,0-3.042,1.364-3.042,3.041c0,1.678,1.364,3.042,3.042,3.042c1.677,0,3.041-1.364,3.041-3.042  C127.481,128.087,126.117,126.723,124.44,126.723z"/><path d="M98.601,109.52c18.404,0,33.378-14.973,33.378-33.377c0-18.404-14.974-33.377-33.378-33.377S65.223,57.738,65.223,76.142  C65.223,94.547,80.196,109.52,98.601,109.52z M98.601,47.765c15.647,0,28.378,12.73,28.378,28.377  c0,15.647-12.73,28.377-28.378,28.377s-28.377-12.73-28.377-28.377C70.223,60.495,82.953,47.765,98.601,47.765z"/><path d="M98.601,99.35c12.797,0,23.207-10.411,23.207-23.208s-10.41-23.207-23.207-23.207S75.394,63.346,75.394,76.142  S85.804,99.35,98.601,99.35z M98.601,57.935c10.039,0,18.207,8.167,18.207,18.207S108.64,94.35,98.601,94.35  s-18.207-8.168-18.207-18.208S88.562,57.935,98.601,57.935z"/><path d="M145.741,30.03H78.107v-5.864c0-1.933-1.567-3.5-3.5-3.5H70.57v-3.474c0-6.661-5.419-12.08-12.08-12.08H34.097  c-6.661,0-12.08,5.419-12.08,12.08V122.92c-4.515,1.199-7.857,5.309-7.857,10.197v8.317h-0.901c-1.381,0-2.5,1.119-2.5,2.5  s1.119,2.5,2.5,2.5h3.401h1.251v4.955c0,1.381,1.119,2.5,2.5,2.5s2.5-1.119,2.5-2.5v-4.955h5.212v4.955c0,1.381,1.119,2.5,2.5,2.5  s2.5-1.119,2.5-2.5v-4.955h1.251h3.4c1.381,0,2.5-1.119,2.5-2.5s-1.119-2.5-2.5-2.5h-0.9v-8.317c0-4.887-3.342-8.998-7.857-10.197  V17.191c0-2.801,2.279-5.08,5.08-5.08H58.49c2.801,0,5.08,2.279,5.08,5.08v3.474h-4.038c-1.933,0-3.5,1.567-3.5,3.5v5.864h-4.732  c-1.933,0-3.5,1.567-3.5,3.5v117.859c0,1.933,1.567,3.5,3.5,3.5h94.442c1.933,0,3.5-1.567,3.5-3.5V33.53  C149.241,31.596,147.674,30.03,145.741,30.03z M31.875,133.116v8.317H19.16v-8.317c0-3.066,2.495-5.561,5.561-5.561h1.592  C29.379,127.556,31.875,130.05,31.875,133.116z M63.032,27.665h8.076v2.364h-8.076V27.665z M142.241,147.889H54.799V37.03h4.732  h15.076h67.634V147.889z"/><path d="M98.601,89.179c7.188,0,13.036-5.849,13.036-13.037s-5.848-13.036-13.036-13.036s-13.036,5.848-13.036,13.036  S91.412,89.179,98.601,89.179z M98.601,68.106c4.431,0,8.036,3.605,8.036,8.036s-3.605,8.037-8.036,8.037s-8.036-3.605-8.036-8.037  S94.17,68.106,98.601,68.106z"/><path d="M107.173,117.729H90.028H67.573c-3.477,0-6.306,2.829-6.306,6.306v11.459c0,3.478,2.829,6.307,6.306,6.307h62.056  c3.477,0,6.306-2.829,6.306-6.307v-11.459c0-3.477-2.829-6.306-6.306-6.306H107.173z M104.673,122.729v4.535H92.528v-4.535H104.673z   M130.935,124.034v11.459c0,0.721-0.586,1.307-1.306,1.307H67.573c-0.72,0-1.306-0.586-1.306-1.307v-11.459  c0-0.72,0.586-1.306,1.306-1.306h19.956v7.035c0,1.381,1.119,2.5,2.5,2.5h17.145c1.381,0,2.5-1.119,2.5-2.5v-7.035h19.956  C130.349,122.729,130.935,123.315,130.935,124.034z"/><path d="M81.324,126.723c-1.677,0-3.042,1.364-3.042,3.041c0,1.678,1.364,3.042,3.042,3.042c1.677,0,3.041-1.364,3.041-3.042  C84.365,128.087,83.001,126.723,81.324,126.723z"/><path d="M72.761,126.723c-1.677,0-3.042,1.364-3.042,3.041c0,1.678,1.364,3.042,3.042,3.042s3.042-1.364,3.042-3.042  C75.803,128.087,74.438,126.723,72.761,126.723z"/><text x="0" y="175" fill="#000000" font-size="5px" font-weight="bold" font-family="'Helvetica Neue', Helvetica, Arial-Unicode, Arial, Sans-serif">Created by Symbolon</text><text x="0" y="180" fill="#000000" font-size="5px" font-weight="bold" font-family="'Helvetica Neue', Helvetica, Arial-Unicode, Arial, Sans-serif">from the Noun Project</text></svg>