<svg xmlns="http://www.w3.org/2000/svg" xmlns:xlink="http://www.w3.org/1999/xlink" version="1.1" x="0px" y="0px" viewBox="0 0 64 80" enable-background="new 0 0 64 64" xml:space="preserve"><g><path d="M45,18v8H19v-8H1v28h16h2h26h2h16V18H45z M17,44H3V20h14v6V44z M45,44H19V28h26V44z M61,44H47V26v-6h14V44z"/><path d="M10,31c-2.8,0-5,2.2-5,5c0,2.8,2.2,5,5,5c2.8,0,5-2.2,5-5C15,33.2,12.8,31,10,31z M10,39c-1.7,0-3-1.3-3-3s1.3-3,3-3   s3,1.3,3,3S11.7,39,10,39z"/><rect x="9" y="23" width="2" height="2"/><path d="M54,41c2.8,0,5-2.2,5-5c0-2.8-2.2-5-5-5c-2.8,0-5,2.2-5,5C49,38.8,51.2,41,54,41z M54,33c1.7,0,3,1.3,3,3s-1.3,3-3,3   s-3-1.3-3-3S52.3,33,54,33z"/><rect x="53" y="23" width="2" height="2"/><rect x="21" y="30" width="10" height="2"/><rect x="32" y="37" width="11" height="2"/><rect x="41" y="30" width="2" height="2"/><rect x="37" y="30" width="2" height="2"/><rect x="33" y="30" width="2" height="2"/><path d="M25,42c2.2,0,4-1.8,4-4s-1.8-4-4-4c-2.2,0-4,1.8-4,4S22.8,42,25,42z M25,36c1.1,0,2,0.9,2,2s-0.9,2-2,2c-1.1,0-2-0.9-2-2   S23.9,36,25,36z"/></g></svg>