<svg xmlns="http://www.w3.org/2000/svg" xmlns:xlink="http://www.w3.org/1999/xlink" version="1.1" x="0px" y="0px" viewBox="0 0 64 80" style="enable-background:new 0 0 64 64;" xml:space="preserve"><path class="Graphic_x0020_Style_x0020_2" d="M53,2h-5V1c0-0.6-0.4-1-1-1H17c-0.6,0-1,0.4-1,1v1h-5C8.2,2,6,4.2,6,7v50  c0,1.7,1.3,3,3,3h3.2l0.8,3.2c0.1,0.4,0.5,0.8,1,0.8h6c0.5,0,0.9-0.3,1-0.8l0.8-3.2h20.4l0.8,3.2c0.1,0.4,0.5,0.8,1,0.8h6  c0.5,0,0.9-0.3,1-0.8l0.8-3.2H55c1.7,0,3-1.3,3-3V7C58,4.2,55.8,2,53,2z M18,2h28v14c0,2.2-1.8,4-4,4H22c-2.2,0-4-1.8-4-4V2z   M19.2,62h-4.4l-0.5-2h5.4L19.2,62z M49.2,62h-4.4l-0.5-2h5.4L49.2,62z M56,57c0,0.6-0.4,1-1,1H9c-0.6,0-1-0.4-1-1V7  c0-1.7,1.3-3,3-3h5v12c0,3.3,2.7,6,6,6h20c3.3,0,6-2.7,6-6V4h5c1.7,0,3,1.3,3,3V57z M32,18c2.2,0,4-1.8,4-4s-1.8-4-4-4s-4,1.8-4,4  S29.8,18,32,18z M32,12c1.1,0,2,0.9,2,2s-0.9,2-2,2s-2-0.9-2-2S30.9,12,32,12z M24,27c0-0.6,0.4-1,1-1h14c0.6,0,1,0.4,1,1  s-0.4,1-1,1H25C24.4,28,24,27.6,24,27z M24,31c0-0.6,0.4-1,1-1h14c0.6,0,1,0.4,1,1s-0.4,1-1,1H25C24.4,32,24,31.6,24,31z M24,35  c0-0.6,0.4-1,1-1h14c0.6,0,1,0.4,1,1s-0.4,1-1,1H25C24.4,36,24,35.6,24,35z M44,44h-2v-2c0-0.6-0.4-1-1-1H23c-0.6,0-1,0.4-1,1v11  c0,0.6,0.4,1,1,1h18c0.6,0,1-0.4,1-1v-2h2c0.6,0,1-0.4,1-1v-5C45,44.4,44.6,44,44,44z M43,49h-2c-0.6,0-1,0.4-1,1v2H24v-9h16v2  c0,0.6,0.4,1,1,1h2V49z M34.9,49.6c0.2,0.5,0,1.1-0.6,1.3c-0.6,0.2-1.1-0.2-1.3-0.6l-2-5c-0.2-0.5,0-1.1,0.6-1.3  c0.5-0.2,1.1,0,1.3,0.6L34.9,49.6z M13,7v48c0,0.6-0.4,1-1,1s-1-0.4-1-1V7c0-0.6,0.4-1,1-1S13,6.4,13,7z M53,7v48c0,0.6-0.4,1-1,1  s-1-0.4-1-1V7c0-0.6,0.4-1,1-1S53,6.4,53,7z"/></svg>