<?xml version="1.0" encoding="UTF-8"?>
<svg version="1.1" xmlns="http://www.w3.org/2000/svg" width="64" height="64">
<path d="M0 0 C1.94059214 16.85440212 1.94059214 16.85440212 -2.49609375 23.16796875 C-4.96012038 26.15689973 -7.64803516 28.88608062 -10.50463867 31.5 C-12.01876755 33.01882577 -13.04652281 34.57562822 -14.21875 36.36328125 C-17.85047694 39.8062808 -20.05049924 39.62811464 -24.90429688 39.52734375 C-25.86400391 39.47707031 -26.82371094 39.42679688 -27.8125 39.375 C-28.79154297 39.34792969 -29.77058594 39.32085937 -30.77929688 39.29296875 C-33.18846621 39.22245648 -35.59308819 39.12398568 -38 39 C-39.38009167 31.06624227 -40.40486798 22.59754173 -36.55566406 15.23876953 C-26.80293103 1.39296035 -16.37933913 -2.76978386 0 0 Z M-17 2 C-17.33 3.32 -17.66 4.64 -18 6 C-19.32 6.33 -20.64 6.66 -22 7 C-22 7.33 -22 7.66 -22 8 C-20.35 8 -18.7 8 -17 8 C-17 8.66 -17 9.32 -17 10 C-18.155 9.835 -19.31 9.67 -20.5 9.5 C-23.61585897 9.46105176 -24.78748901 9.83953984 -27.3125 11.74609375 C-31.0376768 14.9155382 -31.0376768 14.9155382 -33 19 C-26.92063811 19.9568471 -22.01818644 20.42416358 -16.828125 16.76171875 C-12.17300999 12.35213477 -8.45117555 7.3720377 -5 2 C-8.96 2 -12.92 2 -17 2 Z M-36 21 C-36 26.28 -36 31.56 -36 37 C-30.72 37 -25.44 37 -20 37 C-20 31.72 -20 26.44 -20 21 C-25.28 21 -30.56 21 -36 21 Z " fill="#000000" transform="translate(56,0)"/>
<path d="M0 0 C4.29 0 8.58 0 13 0 C14.94059214 16.85440212 14.94059214 16.85440212 10.50390625 23.16796875 C8.03987962 26.15689973 5.35196484 28.88608062 2.49536133 31.5 C0.98123245 33.01882577 -0.04652281 34.57562822 -1.21875 36.36328125 C-4.85047694 39.8062808 -7.05049924 39.62811464 -11.90429688 39.52734375 C-12.86400391 39.47707031 -13.82371094 39.42679688 -14.8125 39.375 C-15.79154297 39.34792969 -16.77058594 39.32085937 -17.77929688 39.29296875 C-20.18846621 39.22245648 -22.59308819 39.12398568 -25 39 C-25.05789006 35.54173658 -25.09355821 32.08359707 -25.125 28.625 C-25.14175781 27.64015625 -25.15851562 26.6553125 -25.17578125 25.640625 C-25.18222656 24.69960938 -25.18867188 23.75859375 -25.1953125 22.7890625 C-25.20578613 21.91975098 -25.21625977 21.05043945 -25.22705078 20.15478516 C-25 18 -25 18 -23 16 C-20.375 15.875 -20.375 15.875 -18 16 C-18.33 16.66 -18.66 17.32 -19 18 C-13.42046972 18.86281396 -8.87060684 19.33071625 -4.1171875 15.94921875 C-0.08297831 11.88490352 3.44579029 7.48315088 7 3 C4.36 2.67 1.72 2.34 -1 2 C-0.67 1.34 -0.34 0.68 0 0 Z M-23 21 C-23 26.28 -23 31.56 -23 37 C-17.72 37 -12.44 37 -7 37 C-7 31.72 -7 26.44 -7 21 C-12.28 21 -17.56 21 -23 21 Z " fill="#000000" transform="translate(51,25)"/>
<path d="M0 0 C0.3125 2.16796875 0.3125 2.16796875 0 5 C-2.1875 7.67578125 -2.1875 7.67578125 -5 10.3125 C-5.928125 11.19550781 -6.85625 12.07851563 -7.8125 12.98828125 C-8.534375 13.65214844 -9.25625 14.31601562 -10 15 C-8.04196493 15.05389087 -6.08351091 15.09274217 -4.125 15.125 C-3.03445313 15.14820313 -1.94390625 15.17140625 -0.8203125 15.1953125 C2.1371051 15.30060534 2.1371051 15.30060534 4 13 C7.625 12.875 7.625 12.875 11 13 C10.67902344 13.49371094 10.35804687 13.98742188 10.02734375 14.49609375 C8.35663162 18.56805753 8.60323397 22.89584078 8.52148438 27.24414062 C8.31937714 32.55315272 8.31937714 32.55315272 6.77783203 34.70996094 C4.43067078 36.41311942 2.99474234 36.34535895 0.11328125 36.29296875 C-0.82451172 36.28330078 -1.76230469 36.27363281 -2.72851562 36.26367188 C-3.70498047 36.23853516 -4.68144531 36.21339844 -5.6875 36.1875 C-6.67556641 36.17396484 -7.66363281 36.16042969 -8.68164062 36.14648438 C-11.12164231 36.11112203 -13.56054719 36.06177033 -16 36 C-18.38836483 19.04628409 -18.38836483 19.04628409 -14.54394531 12.53320312 C-4.32630814 0 -4.32630814 0 0 0 Z M-14 18 C-14 23.28 -14 28.56 -14 34 C-8.72 34 -3.44 34 2 34 C2 28.72 2 23.44 2 18 C-3.28 18 -8.56 18 -14 18 Z " fill="#000000" transform="translate(16,28)"/>
<path d="M0 0 C3.3 0 6.6 0 10 0 C10 3.3 10 6.6 10 10 C6.7 10 3.4 10 0 10 C0 6.7 0 3.4 0 0 Z " fill="#000000" transform="translate(31,49)"/>
<path d="M0 0 C3.3 0 6.6 0 10 0 C10 3.3 10 6.6 10 10 C6.7 10 3.4 10 0 10 C0 6.7 0 3.4 0 0 Z " fill="#000000" transform="translate(5,49)"/>
<path d="M0 0 C3.3 0 6.6 0 10 0 C10 3.3 10 6.6 10 10 C6.7 10 3.4 10 0 10 C0 6.7 0 3.4 0 0 Z " fill="#000000" transform="translate(23,24)"/>
</svg>
