<svg fill="#000000" height="200px" width="200px" version="1.1" id="Layer_1" xmlns="http://www.w3.org/2000/svg" xmlns:xlink="http://www.w3.org/1999/xlink" viewBox="0 0 512.004 512.004" xml:space="preserve"><g id="SVGRepo_bgCarrier" stroke-width="0"></g><g id="SVGRepo_tracerCarrier" stroke-linecap="round" stroke-linejoin="round"></g><g id="SVGRepo_iconCarrier"> <g> <g> <path d="M503.141,305.899h-74.405v-7.971c0-15.508-12.617-28.125-28.125-28.125s-28.125,12.617-28.125,28.125v7.973h-11.224 v-14.262c0-14.177-11.535-25.712-25.712-25.712h-70.69v-18.42c10.05-1.695,19.368-6.282,26.998-13.448 c10.505-9.866,16.529-23.786,16.529-38.191c0-14.932-6.186-28.813-17.119-38.733V84.471c0-19.446-15.821-35.266-35.266-35.266 s-35.265,15.82-35.265,35.266v72.671c-11.523,10.5-17.839,25.66-17.053,41.395c1.233,24.751,19.525,44.92,43.46,48.966v18.425 h-70.69c-14.177,0-25.712,11.534-25.712,25.712v14.262h-11.223v-7.973c0-15.508-12.618-28.125-28.126-28.125 S83.27,282.42,83.27,297.927v7.971H8.859c-4.893,0-8.859,3.966-8.859,8.859v99.216c0,4.892,3.965,8.859,8.859,8.859H83.27v7.967 c0,15.508,12.617,28.125,28.125,28.125c15.508,0,28.126-12.617,28.126-28.125v-7.966h11.223v14.254 c0,14.177,11.535,25.712,25.712,25.712h159.096c14.177,0,25.712-11.534,25.712-25.712v-14.254h11.224v7.966 c0,15.508,12.617,28.125,28.125,28.125s28.125-12.617,28.125-28.125v-7.967h74.405c4.893,0,8.859-3.966,8.859-8.859v-99.216 C512,309.865,508.035,305.899,503.141,305.899z M83.27,405.115H17.717v-81.499H83.27V405.115z M121.804,430.8 c0,5.739-4.669,10.408-10.409,10.408c-5.738,0-10.408-4.669-10.408-10.408V297.927c0-5.739,4.669-10.408,10.408-10.408 c5.739,0,10.409,4.669,10.409,10.408C121.804,297.927,121.804,430.8,121.804,430.8z M150.744,405.117h-11.223v-81.499h11.223 V405.117z M221.38,197.655c-0.569-11.429,4.513-22.398,13.597-29.343c2.192-1.676,3.479-4.278,3.479-7.037V84.471 c0-9.677,7.872-17.549,17.548-17.549c9.677,0,17.549,7.872,17.549,17.549v76.804c0,2.759,1.286,5.361,3.477,7.037 c8.67,6.629,13.642,16.673,13.642,27.557c0,9.674-3.886,18.651-10.941,25.278c-7.05,6.62-16.275,9.933-25.983,9.322 C236.462,229.38,222.243,214.968,221.38,197.655z M343.547,437.088h-0.001c0,4.408-3.586,7.995-7.995,7.995H176.456 c-4.408,0-7.995-3.586-7.995-7.995V291.639c0-4.408,3.586-7.995,7.995-7.995h159.096c4.408,0,7.995,3.586,7.995,7.995V437.088z M372.487,405.117h-11.224v-81.499h11.224V405.117z M411.02,430.8c0,5.739-4.669,10.408-10.408,10.408 c-5.739,0-10.408-4.669-10.408-10.408V297.927c0-5.739,4.669-10.408,10.408-10.408c5.739,0,10.408,4.669,10.408,10.408V430.8z M494.283,405.115h-65.546v-81.499h65.546V405.115z"></path> </g> </g> <g> <g> <path d="M307.571,359.263l-33.966-33.964c-3.461-3.46-9.069-3.46-12.528,0c-3.46,3.46-3.46,9.068,0,12.527l18.843,18.843h-70.349 c-4.893,0-8.859,3.966-8.859,8.859s3.965,8.859,8.859,8.859h70.349l-18.843,18.841c-3.46,3.46-3.46,9.068,0,12.527 c1.73,1.73,3.997,2.595,6.265,2.595c2.267,0,4.534-0.865,6.265-2.595l33.965-33.965c1.661-1.661,2.594-3.914,2.594-6.264 S309.232,360.923,307.571,359.263z"></path> </g> </g> <g> <g> <path d="M264.863,175.722V85.229c0-4.892-3.965-8.859-8.859-8.859c-4.893,0-8.859,3.966-8.859,8.859v90.493 c-8.025,3.448-13.66,11.425-13.66,20.698c0,12.417,10.102,22.52,22.518,22.52c12.417,0,22.52-10.102,22.52-22.52 C278.524,187.147,272.888,179.17,264.863,175.722z"></path> </g> </g> </g></svg>