<svg xmlns="http://www.w3.org/2000/svg" xmlns:xlink="http://www.w3.org/1999/xlink" version="1.1" x="0px" y="0px" viewBox="0 0 550 687.5" style="enable-background:new 0 0 550 550;" xml:space="preserve"><g><g><g><g><g><g><g><path d="M190.12,530.938c-3.159,0-6.151-1.883-7.414-4.989L33.792,159.625c-1.664-4.093,0.306-8.76,4.398-10.424         L312.399,37.732c4.093-1.664,8.761,0.306,10.424,4.398l148.915,366.324c0.799,1.966,0.784,4.168-0.04,6.123         c-0.825,1.955-2.393,3.502-4.358,4.301L193.13,530.348C192.143,530.749,191.123,530.938,190.12,530.938z M93.007,262.806         l101.508,249.707l259.388-105.443L311.014,55.567L51.627,161.011L93.007,262.806z"/></g></g></g><g><g><g><path d="M458.022,422.034c-3.159,0-6.151-1.883-7.414-4.989c-1.664-4.093,0.306-8.76,4.398-10.424l43.362-17.628         L355.48,37.491l-43.362,17.627c-4.094,1.664-8.76-0.306-10.424-4.398c-1.664-4.093,0.306-8.76,4.398-10.424l50.773-20.64         c1.966-0.798,4.169-0.784,6.123,0.041c1.955,0.825,3.502,2.393,4.301,4.358l148.914,366.324         c1.664,4.093-0.306,8.76-4.398,10.424l-50.773,20.641C460.046,421.845,459.025,422.034,458.022,422.034z"/></g></g></g></g></g><g><g><g><g><g><path d="M218.584,92.505c-1.003,0-2.023-0.19-3.01-0.591c-4.093-1.664-6.062-6.331-4.398-10.424l16-39.36         c1.663-4.092,6.328-6.063,10.423-4.399l40.421,16.43c4.093,1.664,6.063,6.331,4.398,10.424         c-1.664,4.093-6.33,6.062-10.424,4.398l-33.008-13.418l-12.988,31.95C224.735,90.622,221.743,92.505,218.584,92.505z"/></g></g></g><g><g><g><path d="M460.664,282.995c-1.004,0-2.024-0.19-3.012-0.592c-4.093-1.665-6.061-6.332-4.396-10.425l45.116-110.967         l-107.898-43.867c-4.093-1.664-6.063-6.331-4.398-10.424c1.664-4.092,6.333-6.061,10.424-4.398l115.31,46.88         c4.093,1.664,6.063,6.331,4.398,10.424l-48.131,118.382C466.814,281.113,463.821,282.995,460.664,282.995z"/></g></g></g><g><g><g><path d="M359.874,530.936c-1.003,0-2.022-0.189-3.01-0.591l-84.697-34.426c-3.023-1.143-5.175-4.063-5.175-7.485         c0-4.418,3.576-8,7.995-8c1.033,0,2.066,0.2,3.023,0.589l77.469,31.488l30.598-75.26c1.664-4.093,6.333-6.063,10.424-4.398         c4.093,1.664,6.063,6.331,4.398,10.424l-33.61,82.67C366.025,529.053,363.032,530.936,359.874,530.936z"/></g></g></g><g><g><g><path d="M156.517,448.264h-0.01c-1.033,0-2.056-0.2-3.013-0.589L82.65,418.873c-4.09-1.665-6.057-6.331-4.394-10.422         l29.57-72.73c1.664-4.094,6.331-6.063,10.424-4.398c4.093,1.664,6.062,6.331,4.398,10.424L96.09,407.069l63.249,25.71         c3.022,1.143,5.174,4.063,5.174,7.484C164.512,444.682,160.936,448.264,156.517,448.264z"/></g></g></g><g><g><g><path d="M91.974,422.035c-1.005,0-2.026-0.19-3.014-0.593l-50.765-20.638c-1.966-0.799-3.533-2.346-4.358-4.301         c-0.825-1.955-0.839-4.157-0.041-6.123l48.12-118.39c1.664-4.093,6.331-6.063,10.423-4.399         c4.093,1.664,6.063,6.331,4.399,10.423L51.63,388.994l43.364,17.63c4.092,1.666,6.059,6.334,4.392,10.426         C98.123,420.154,95.131,422.035,91.974,422.035z"/></g></g></g><g><g><g><path d="M156.504,117.745c-1.003,0-2.023-0.19-3.01-0.591c-4.093-1.664-6.062-6.331-4.398-10.424l33.61-82.68         c0.799-1.966,2.346-3.533,4.301-4.358s4.158-0.839,6.123-0.041l50.769,20.64c4.093,1.664,6.063,6.33,4.4,10.423         c-1.664,4.093-6.329,6.063-10.423,4.4l-43.36-17.627l-30.598,75.268C162.655,115.862,159.663,117.745,156.504,117.745z"/></g></g></g></g></g></g></g><text x="0" y="565" fill="#000000" font-size="5px" font-weight="bold" font-family="'Helvetica Neue', Helvetica, Arial-Unicode, Arial, Sans-serif">Created by SAM Designs</text><text x="0" y="570" fill="#000000" font-size="5px" font-weight="bold" font-family="'Helvetica Neue', Helvetica, Arial-Unicode, Arial, Sans-serif">from the Noun Project</text></svg>