<svg xmlns="http://www.w3.org/2000/svg" xmlns:xlink="http://www.w3.org/1999/xlink" xml:space="preserve" style="shape-rendering:geometricPrecision;text-rendering:geometricPrecision;image-rendering:optimizeQuality;" viewBox="0 0 6.82666 8.533325000000001" x="0px" y="0px" fill-rule="evenodd" clip-rule="evenodd"><defs><style type="text/css">
   
    .fil1 {fill:none}
    .fil0 {fill:black}
   
  </style></defs><g><path class="fil0" d="M0.853327 1.54681l0.25987 0c0.00510236,-0.00255512 0.0101299,-0.00514961 0.0151181,-0.00775984l0 4.07083 -0.274988 0 0 -4.06307zm0.381657 -0.0715591c0.181079,-0.120665 0.309406,-0.258472 0.626976,-0.258472 0.182402,0 0.322197,0.060315 0.433346,0.12937l0 4.10169c-0.0978189,-0.0674016 -0.222622,-0.13024 -0.433346,-0.13024 -0.317563,0 -0.445906,0.137795 -0.626976,0.258461l0 -4.1008zm1.16699 -0.055685c0.0918583,0.0681614 0.160378,0.127244 0.219051,0.127244 0.0496181,0 0.121748,-0.058815 0.218961,-0.126787l0 4.10923c-0.0706417,0.0456969 -0.13889,0.080622 -0.222406,0.080622 -0.0870866,0 -0.15024,-0.0365709 -0.215606,-0.0838307l0 -4.10648zm0.544681 -0.0693228c0.118098,-0.070752 0.263862,-0.133465 0.440138,-0.133465 0.176083,0 0.311717,0.0557362 0.420413,0.121394l0 4.10089c-0.0967047,-0.0639803 -0.221059,-0.121465 -0.420413,-0.121465 -0.201283,0 -0.331575,0.0691732 -0.440138,0.140213l0 -4.10756zm0.96722 0.0599055c0.0981811,0.0720433 0.170685,0.136661 0.234303,0.136661 0.045248,0 0.112803,-0.053748 0.203713,-0.117858l0 4.1139c-0.0584449,0.0388465 -0.123079,0.0670236 -0.217807,0.0670236 -0.0866496,0 -0.150311,-0.041689 -0.220209,-0.093563l0 -4.10617zm0.544685 -0.0520472c0.120717,-0.0738937 0.271236,-0.141323 0.453063,-0.141323 0.386827,0 0.436996,0.164858 0.691217,0.303l0 4.0901 -0.0192559 0c-0.23778,-0.135799 -0.295094,-0.292283 -0.671961,-0.292283 -0.238846,0 -0.356949,0.0725315 -0.453063,0.145327l0 -4.10482zm1.25095 0.188709l0.263819 0 0 4.06307 -0.263819 0 0 -4.06307z"/></g><rect class="fil1" width="6.82666" height="6.82666"/><text x="0" y="21.82666" fill="#000000" font-size="5px" font-weight="bold" font-family="'Helvetica Neue', Helvetica, Arial-Unicode, Arial, Sans-serif">Created by Graphic Nehar</text><text x="0" y="26.82666" fill="#000000" font-size="5px" font-weight="bold" font-family="'Helvetica Neue', Helvetica, Arial-Unicode, Arial, Sans-serif">from the Noun Project</text></svg>