<svg fill="#000000" height="200px" width="200px" version="1.1" id="Layer_1" xmlns="http://www.w3.org/2000/svg" xmlns:xlink="http://www.w3.org/1999/xlink" viewBox="0 0 503.614 503.614" xml:space="preserve"><g id="SVGRepo_bgCarrier" stroke-width="0"></g><g id="SVGRepo_tracerCarrier" stroke-linecap="round" stroke-linejoin="round"></g><g id="SVGRepo_iconCarrier"> <g> <g> <path d="M485.707,318.958h-49.244v-15.671c0-9.883-8.015-17.903-17.903-17.903h-31.341c-9.888,0-17.903,8.02-17.903,17.903v15.672 h-58.757v-92.328h24.068c9.89,0,17.903-8.013,17.903-17.903v-31.341c0-9.883-8.015-17.903-17.903-17.903H293.85l-26.364-46.132 c-1.494-2.614-4.274-4.228-7.285-4.229V92.336h33.574c1.006,0,2.005-0.181,2.947-0.534l65.722-24.646h65.625 c13.902,0,25.18-11.278,25.18-25.18c0-13.902-11.278-25.18-25.18-25.18h-67.148c-1.006,0-2.005,0.181-2.947,0.534l-65.722,24.646 H260.2V8.393c0-4.636-3.758-8.393-8.393-8.393s-8.393,3.758-8.393,8.393v33.582h-32.052L145.639,17.33 c-0.942-0.353-1.941-0.534-2.947-0.534H75.545c-13.902,0-25.18,11.278-25.18,25.18c0,13.902,11.278,25.18,25.18,25.18h65.625 l65.722,24.646c0.942,0.353,1.941,0.534,2.947,0.534h33.574v16.787h-0.003c-3.012,0-5.794,1.614-7.288,4.23l-26.356,46.131 h-40.776c-9.888,0-17.903,8.02-17.903,17.903v31.341c0,9.89,8.013,17.903,17.903,17.903h24.06v92.328h-58.752v-15.672 c0-9.883-8.015-17.903-17.903-17.903H85.055c-9.888,0-17.903,8.02-17.903,17.903v15.672H17.907 c-9.888,0-17.903,8.02-17.903,17.903v98.489c0,9.89,8.013,17.903,17.903,17.903h49.244v15.669c0,9.89,8.013,17.903,17.903,17.903 h31.341c9.89,0,17.903-8.013,17.903-17.903v-15.669h83.416c-2.479,14.336,1.393,27.182,11.9,37.696 c16.895,16.885,44.273,16.885,61.165,0.004c10.166-10.172,14.136-23.716,12.14-37.699h66.395v15.669 c0,9.89,8.013,17.903,17.903,17.903h31.341c9.89,0,17.903-8.013,17.903-17.903v-15.671h49.244c9.89,0,17.903-8.013,17.903-17.903 v-98.489C503.61,326.978,495.595,318.958,485.707,318.958z M145.639,50.903c-0.942-0.353-1.941-0.534-2.947-0.534H75.545 c-4.631,0-8.393-3.763-8.393-8.393c0-4.631,3.763-8.393,8.393-8.393h65.625l65.722,24.646c0.942,0.353,1.941,0.534,2.947,0.534 h83.934c1.006,0,2.005-0.181,2.947-0.534l65.722-24.646h65.625c4.631,0,8.393,3.763,8.393,8.393c0,4.631-3.763,8.393-8.393,8.393 h-67.148c-1.006,0-2.005,0.181-2.947,0.534l-65.722,24.646h-80.89L145.639,50.903z M248.282,125.91h7.045l19.187,33.574h-45.414 L248.282,125.91z M168.991,209.844c-0.619,0-1.116-0.498-1.116-1.116v-31.341c0-0.614,0.502-1.116,1.116-1.116h45.648h74.341 h45.648c0.615,0,1.116,0.502,1.116,1.116v31.341c0,0.619-0.498,1.116-1.116,1.116h-24.068H193.05H168.991z M209.837,226.631 h83.934v92.328h-83.934V226.631z M17.907,436.467c-0.619,0-1.116-0.498-1.116-1.116v-98.489c0-0.614,0.502-1.116,1.116-1.116 h49.244v100.721H17.907z M117.512,468.923c0,0.619-0.498,1.116-1.116,1.116H85.055c-0.619,0-1.116-0.498-1.116-1.116v-24.062 V327.353v-24.066c0-0.614,0.502-1.116,1.116-1.116h31.341c0.615,0,1.116,0.502,1.116,1.116v24.066v117.508V468.923z M278.91,479.083c-10.333,10.327-27.088,10.327-37.425-0.004c-7.849-7.854-9.827-17.672-5.454-29.959 c0.237-0.402,0.449-0.822,0.62-1.269c1.565-4.101,3.531-8.076,6.028-12.08l11.697-17.477l5.826-8.702L277.871,436 c0.633,0.877,1.225,1.756,1.788,2.637c1.929,3.029,3.43,6.049,4.573,9.138c0.054,0.146,0.132,0.278,0.194,0.42 C288.681,460.018,286.706,471.283,278.91,479.083z M297.679,436.467c-0.832-1.712-1.758-3.413-2.77-5.097 c-0.004-0.006-0.008-0.013-0.012-0.019c-0.418-0.696-0.852-1.388-1.3-2.078c-0.124-0.192-0.245-0.384-0.371-0.575 c-0.32-0.482-0.655-0.961-0.991-1.439c-0.194-0.277-0.376-0.559-0.574-0.835l-18.226-27.237l-4.842-7.239v-14.235 c0-4.636-3.758-8.393-8.393-8.393h-8.393v-8.393c0-4.636-3.758-8.393-8.393-8.393s-8.393,3.758-8.393,8.393v16.787 c0,4.636,3.758,8.393,8.393,8.393h8.393v5.844l-11.838,17.693l-11.392,17.02c-2.066,3.315-3.851,6.585-5.368,9.804h-88.91V335.746 h58.752h117.508h58.757v100.721H297.679z M419.676,468.923c0,0.619-0.498,1.116-1.116,1.116h-31.341 c-0.619,0-1.116-0.498-1.116-1.116v-24.062V327.353v-24.066c0-0.614,0.502-1.116,1.116-1.116h31.341 c0.615,0,1.116,0.502,1.116,1.116v24.064v117.508V468.923z M486.823,435.349c0,0.619-0.498,1.116-1.116,1.116h-49.244V335.744 h49.244c0.615,0,1.116,0.502,1.116,1.116V435.349z"></path> </g> </g> </g></svg>