<svg version="1.1" id="Layer_1" xmlns="http://www.w3.org/2000/svg" xmlns:xlink="http://www.w3.org/1999/xlink" viewBox="0 0 512 512" xml:space="preserve" fill="#000000" stroke="#000000"><g id="SVGRepo_bgCarrier" stroke-width="0"></g><g id="SVGRepo_tracerCarrier" stroke-linecap="round" stroke-linejoin="round"></g><g id="SVGRepo_iconCarrier"> <path style="fill:#FFFFFF;" d="M312.772,96.409h-0.125V63.728h-113.42v32.681c-29.164,16.16-48.895,47.248-48.895,82.951V503.83 h211.336V179.359C361.668,143.656,341.938,112.568,312.772,96.409z"></path> <rect x="199.353" y="8.17" style="fill:#FFFFFFFFFFF;" width="113.294" height="55.557"></rect> <path d="M361.668,269.231c-4.513,0-8.17,3.658-8.17,8.17V495.66H158.502V277.402c0-4.512-3.658-8.17-8.17-8.17 s-8.17,3.658-8.17,8.17V503.83c0,4.512,3.658,8.17,8.17,8.17h211.336c4.513,0,8.17-3.658,8.17-8.17V277.402 C369.838,272.889,366.181,269.231,361.668,269.231z"></path> <path d="M150.332,187.529c4.512,0,8.17-3.658,8.17-8.17c0-30.796,16.38-59.258,42.888-74.78H310.61 c26.508,15.522,42.888,43.984,42.888,74.78c0,4.512,3.657,8.17,8.17,8.17c4.513,0,8.17-3.658,8.17-8.17 c0-37.424-20.349-71.947-53.106-90.097c-1.211-0.672-2.574-1.024-3.96-1.024H199.227c-1.386,0-2.747,0.352-3.96,1.024 c-32.757,18.15-53.105,52.673-53.105,90.097C142.162,183.871,145.82,187.529,150.332,187.529z"></path> <path d="M369.294,236.551H142.706c-4.512,0-8.17,3.658-8.17,8.17s3.658,8.17,8.17,8.17h226.587c4.513,0,8.17-3.658,8.17-8.17 S373.807,236.551,369.294,236.551z"></path> <path d="M142.706,220.21h226.587c4.513,0,8.17-3.658,8.17-8.17s-3.657-8.17-8.17-8.17H142.706c-4.512,0-8.17,3.658-8.17,8.17 S138.194,220.21,142.706,220.21z"></path> <path d="M188.46,71.898H323.54c4.513,0,8.17-3.658,8.17-8.17s-3.657-8.17-8.17-8.17h-2.723V8.17c0-4.512-3.657-8.17-8.17-8.17 H199.353c-4.512,0-8.17,3.658-8.17,8.17v47.387h-2.723c-4.512,0-8.17,3.658-8.17,8.17S183.947,71.898,188.46,71.898z M207.523,16.34 h96.953v39.217h-96.953V16.34z"></path> <path d="M286.882,416.644c0,4.512,3.657,8.17,8.17,8.17h20.878c2.919,0,5.616-1.558,7.075-4.085c1.46-2.527,1.46-5.643,0-8.17 l-59.93-103.801c-1.46-2.527-4.156-4.085-7.075-4.085s-5.616,1.558-7.075,4.085l-59.93,103.801c-1.46,2.527-1.46,5.643,0,8.17 c1.46,2.527,4.156,4.085,7.075,4.085h49.918l-5.023,5.24c-3.123,3.257-3.013,8.43,0.244,11.552c1.584,1.517,3.619,2.272,5.653,2.272 c2.149,0,4.294-0.842,5.899-2.516l18.274-19.064c0.064-0.066,0.118-0.138,0.179-0.206c0.099-0.11,0.198-0.219,0.291-0.334 c0.08-0.099,0.154-0.203,0.228-0.305c0.08-0.109,0.16-0.218,0.235-0.33c0.073-0.112,0.139-0.227,0.208-0.341 c0.066-0.112,0.132-0.222,0.193-0.338c0.062-0.118,0.117-0.239,0.173-0.359c0.056-0.118,0.111-0.235,0.161-0.356 c0.049-0.121,0.09-0.244,0.134-0.367c0.044-0.124,0.09-0.249,0.127-0.377c0.038-0.126,0.066-0.255,0.099-0.383 c0.032-0.126,0.066-0.252,0.09-0.381c0.029-0.148,0.048-0.296,0.069-0.446c0.016-0.111,0.036-0.221,0.047-0.333 c0.052-0.529,0.052-1.063,0-1.593c-0.011-0.113-0.03-0.222-0.047-0.333c-0.021-0.149-0.038-0.297-0.069-0.446 c-0.024-0.13-0.059-0.254-0.09-0.381c-0.032-0.127-0.061-0.256-0.099-0.383c-0.037-0.127-0.084-0.252-0.127-0.377 c-0.044-0.123-0.085-0.246-0.134-0.367c-0.05-0.121-0.106-0.239-0.161-0.356c-0.057-0.121-0.111-0.241-0.173-0.359 c-0.061-0.114-0.126-0.225-0.193-0.338c-0.069-0.114-0.134-0.229-0.208-0.341c-0.074-0.112-0.156-0.221-0.235-0.33 c-0.074-0.102-0.148-0.206-0.228-0.305c-0.093-0.117-0.192-0.224-0.291-0.334c-0.061-0.069-0.114-0.139-0.179-0.206l-18.274-19.064 c-3.122-3.258-8.294-3.367-11.552-0.244c-3.257,3.122-3.367,8.294-0.244,11.552l5.023,5.24h-35.767L256,329.183l45.778,79.29h-6.727 C290.539,408.474,286.882,412.132,286.882,416.644z"></path> </g></svg>