<svg xmlns="http://www.w3.org/2000/svg" xmlns:xlink="http://www.w3.org/1999/xlink" version="1.1" x="0px" y="0px" viewBox="0 0 126.003 149.575" style="enable-background:new 0 0 126.003 119.66;" xml:space="preserve"><g><path d="M102.891,87.13c-0.98,0-1.78,0.79-1.78,1.77c0,0.98,0.8,1.78,1.78,1.78c0.98,0,1.77-0.8,1.77-1.78   C104.661,87.92,103.871,87.13,102.891,87.13z"/><path d="M23.111,87.13c-0.98,0-1.77,0.79-1.77,1.77c0,0.98,0.79,1.78,1.77,1.78c0.98,0,1.78-0.8,1.78-1.78   C24.891,87.92,24.091,87.13,23.111,87.13z"/><path d="M23.844,47.426c0.698,0.99,1.966,1.38,3.088,0.946c3.373-1.303,13.64-4.333,36.069-4.333s32.696,3.03,36.07,4.333   c0.306,0.118,0.622,0.175,0.936,0.175c0.835,0,1.645-0.402,2.152-1.123l0.766-1.089c0.378-0.551,0.533-1.222,0.434-1.904   c-1.367-8.552-4.865-28.773-7.796-31.824C91.871,8.755,68.854,7.47,63.001,7.47s-28.87,1.285-32.561,5.137   c-2.932,3.051-6.43,23.272-7.799,31.839c-0.098,0.667,0.058,1.339,0.441,1.899L23.844,47.426z M31.883,13.992   C34.579,11.179,54.82,9.47,63.001,9.47s28.422,1.708,31.119,4.523c1.943,2.023,5.049,16.904,7.262,30.74   c0.024,0.169-0.014,0.336-0.1,0.461l-0.759,1.079c-0.171,0.242-0.466,0.336-0.732,0.233c-3.478-1.343-14.024-4.467-36.79-4.467   s-33.313,3.124-36.789,4.467c-0.271,0.104-0.563,0.01-0.732-0.232l-0.754-1.071c-0.092-0.135-0.13-0.302-0.107-0.457   C26.833,30.897,29.939,16.017,31.883,13.992z"/><path d="M107.032,82.78h-8.36c-1.188,0-2.27,0.653-2.826,1.707l-1.6,3.063H75.831v-0.58c0-0.552-0.447-1-1-1h-23.66   c-0.553,0-1,0.448-1,1v0.58H31.757l-1.602-3.066c-0.555-1.051-1.637-1.704-2.824-1.704h-8.36c-0.813,0-1.556,0.375-2.037,1.03   c-0.484,0.659-0.622,1.485-0.375,2.276l2.279,7.076c0.473,1.488,1.844,2.487,3.413,2.487h6.81c0.95,0,1.882-0.387,2.568-1.073   l0.365-0.376h18.177v0.45c0,0.552,0.447,1,1,1h23.66c0.553,0,1-0.448,1-1V94.2h18.177l0.376,0.387   c0.676,0.676,1.607,1.063,2.558,1.063h6.81c1.569,0,2.94-1,3.412-2.483l2.282-7.088c0.245-0.783,0.107-1.609-0.377-2.268   C108.587,83.156,107.845,82.78,107.032,82.78z M31.572,92.2c-0.271,0-0.529,0.109-0.718,0.303l-0.649,0.669   c-0.304,0.303-0.72,0.477-1.144,0.477h-6.81c-0.693,0-1.3-0.439-1.508-1.097l-2.278-7.071c-0.074-0.24,0.031-0.42,0.08-0.487   c0.059-0.081,0.192-0.215,0.426-0.215h8.36c0.443,0,0.848,0.244,1.053,0.633l1.881,3.6c0.173,0.33,0.515,0.537,0.887,0.537h19.02   v2.65H31.572z M52.171,93.65v-0.4c0.001-0.017,0.01-0.032,0.01-0.049c0-0.017-0.009-0.031-0.01-0.047V88.6   c0.001-0.017,0.01-0.032,0.01-0.049c0-0.017-0.009-0.031-0.01-0.047V87.97h21.66v0.531c-0.001,0.017-0.01,0.032-0.01,0.049   c0,0.017,0.009,0.031,0.01,0.047v4.553c-0.001,0.017-0.01,0.032-0.01,0.049c0,0.017,0.009,0.031,0.01,0.047v0.402H52.171z    M107.539,85.474l-2.281,7.083c-0.207,0.654-0.813,1.093-1.507,1.093h-6.81c-0.424,0-0.84-0.174-1.133-0.467l-0.66-0.68   C94.96,92.31,94.701,92.2,94.431,92.2h-18.6v-2.65h19.02c0.372,0,0.714-0.207,0.887-0.537l1.879-3.597   c0.207-0.393,0.611-0.636,1.055-0.636h8.36c0.233,0,0.367,0.134,0.426,0.215C107.506,85.062,107.612,85.242,107.539,85.474z"/><path d="M125.991,43.243c-0.095-2.131-0.763-3.814-1.932-4.867c-3.052-2.74-10.778-2.538-12.757-0.78   c-0.366,0.33-1.484,1.334-1.561,6.866c-0.012,0.688-0.511,1.255-1.191,1.348l-1.005,0.143c-0.009-0.06-0.025-0.122-0.03-0.182   c-1.092-10.104-4.224-33.99-9.704-37.538c-0.593-0.39-1.269-0.76-1.992-1.112l-0.993-4.187C94.434,1.235,92.884,0,91.141,0h-3.739   c-1.536,0-2.907,0.918-3.493,2.334l-0.492,1.174C73.492,1.817,63.1,1.923,63.013,1.92c-0.106-0.001-10.501-0.104-20.428,1.588   l-0.49-1.169C41.508,0.918,40.137,0,38.601,0h-3.739c-1.743,0-3.293,1.235-3.683,2.929l-0.995,4.194   c-0.723,0.352-1.398,0.721-1.986,1.108c-5.487,3.551-8.619,27.437-9.712,37.552c-0.005,0.056-0.02,0.115-0.029,0.171l-1.011-0.144   c-0.675-0.092-1.174-0.659-1.186-1.343c-0.076-5.536-1.194-6.54-1.565-6.874c-1.973-1.753-9.701-1.956-12.753,0.785   c-1.168,1.052-1.836,2.735-1.931,4.866c-0.137,3.041,0.907,6.391,2.536,8.147c1.921,2.071,7.531,2.517,10.573,2.604   c-0.778,1.134-1.52,2.267-2.179,3.337c-1.453,2.331-2.544,4.426-3.237,6.21c-0.098,0.24-0.182,0.494-0.268,0.756l-0.062,0.188   C5.121,71.79,6.44,86.711,7.681,90.532c0.38,1.16,1.159,2.494,2.29,3.96v19.868c0,2.922,2.378,5.3,5.3,5.3h11.461   c2.916,0,5.289-2.378,5.289-5.3V99.5h61.961v14.86c0,2.922,2.373,5.3,5.289,5.3h11.461c2.922,0,5.3-2.378,5.3-5.3V94.493   c1.129-1.464,1.909-2.799,2.291-3.963c1.24-3.818,2.559-18.74,0.298-26.064l-0.056-0.167c-0.086-0.263-0.17-0.517-0.262-0.74   c-0.699-1.8-1.79-3.896-3.24-6.222c-0.661-1.074-1.404-2.208-2.182-3.342c3.043-0.087,8.652-0.534,10.573-2.604   C125.083,49.634,126.127,46.284,125.991,43.243z M29.291,9.906c0.632-0.416,1.364-0.815,2.176-1.187   c0.042-0.019,0.082-0.041,0.12-0.065c2.704-1.248,6.257-2.27,10.562-3.04c9.964-1.801,20.738-1.696,20.864-1.694   c0.102,0,10.866-0.109,20.843,1.694c4.302,0.77,7.853,1.792,10.557,3.039c0.039,0.024,0.08,0.047,0.123,0.066   c0.812,0.372,1.544,0.771,2.183,1.19c3.896,2.522,7.181,21.011,8.808,36.067c0.046,0.471,0.159,0.954,0.335,1.433   c0.219,0.605,0.526,1.163,0.917,1.662c0.627,0.791,1.9,2.43,3.381,4.522c0.955,1.328,1.871,2.688,2.696,3.988l-2.976,2.058H92.472   c-0.015-0.026-0.029-0.053-0.044-0.079c-0.112-0.194-0.234-0.376-0.357-0.552c-0.008-0.015-0.016-0.029-0.025-0.044v0   c-0.898-1.62-1.414-3.014-1.414-3.825c0-1.909,1.083-5.844,1.094-5.883c0.147-0.532-0.165-1.083-0.697-1.23   c-0.527-0.144-1.082,0.164-1.23,0.697c-0.048,0.172-1.166,4.236-1.166,6.417c0,0.32,0.048,0.677,0.129,1.057   c-0.85-0.372-1.757-0.578-2.688-0.578h-17.32v-8.77c0-0.552-0.447-1-1-1s-1,0.448-1,1v8.77h-7.5v-8.77c0-0.552-0.447-1-1-1   s-1,0.448-1,1v8.77h-17.32c-0.932,0-1.838,0.206-2.688,0.578c0.081-0.381,0.129-0.737,0.129-1.057c0-2.181-1.118-6.245-1.166-6.417   c-0.148-0.533-0.705-0.84-1.23-0.697c-0.532,0.147-0.845,0.698-0.697,1.23c0.011,0.04,1.094,3.974,1.094,5.883   c0,0.81-0.515,2.201-1.411,3.819c-0.006,0.01-0.012,0.02-0.019,0.031c-0.126,0.181-0.251,0.371-0.364,0.568   c-0.016,0.028-0.031,0.055-0.047,0.083H16.123l-2.976-2.058c0.824-1.299,1.742-2.66,2.7-3.994c1.477-2.086,2.75-3.725,3.381-4.521   c0.387-0.494,0.694-1.051,0.911-1.652c0.178-0.484,0.291-0.967,0.336-1.428C22.104,30.921,25.388,12.432,29.291,9.906z    M116.225,63.78h-5.033v-2.616l2.711-1.875C114.887,60.937,115.664,62.439,116.225,63.78z M12.1,59.289l2.711,1.875v2.616H9.777   C10.334,62.447,11.112,60.944,12.1,59.289z M30.683,67.92H16.811v-6.28h15.676C31.518,63.718,30.911,65.82,30.683,67.92z    M33.356,74.74c-0.604-1.923-0.858-3.863-0.757-5.766c0.142-2.588,0.933-5.208,2.354-7.788c0.01-0.014,0.018-0.03,0.027-0.045   c0.002-0.003,0.004-0.004,0.006-0.007l0.058-0.093c0.116-0.186,0.347-0.553,0.616-1.024c0.001-0.001,0.001-0.002,0.001-0.003   c0.004-0.007,0.009-0.013,0.013-0.02c1.087-1.509,2.638-2.374,4.259-2.374h46.141c1.626,0,3.18,0.871,4.268,2.389   c0.002,0.003,0.003,0.006,0.005,0.008c0.27,0.471,0.5,0.838,0.616,1.024l0.054,0.086c0.003,0.005,0.008,0.009,0.011,0.014   c1.437,2.595,2.237,5.23,2.378,7.832c0.103,1.903-0.152,3.844-0.755,5.764c-0.468,1.475-1.105,2.886-1.95,4.318   c-1.075,1.838-2.805,2.935-4.626,2.935H39.931c-1.821,0-3.551-1.097-4.628-2.938C34.46,77.623,33.823,76.212,33.356,74.74z    M109.192,67.92H95.319c-0.227-2.099-0.834-4.202-1.803-6.28h15.676V67.92z M2.01,43.333c0.069-1.562,0.521-2.794,1.27-3.468   c2.427-2.177,9.019-1.727,10.083-0.781c0.311,0.278,0.848,1.731,0.898,5.414c0.029,1.681,1.255,3.066,2.908,3.292l0.467,0.067   c-0.604,0.762-1.765,2.259-3.123,4.158C10.975,52.033,5.4,51.524,4.015,50.03C2.761,48.679,1.9,45.8,2.01,43.333z M116.421,89.909   c-0.332,1.013-1.063,2.234-2.169,3.625c-1.103,1.37-2.225,2.497-2.799,3.051c-0.605,0.591-1.405,0.916-2.252,0.916h-92.4   c-0.847,0-1.646-0.325-2.256-0.919c-0.57-0.55-1.692-1.677-2.791-3.043c-1.109-1.395-1.841-2.616-2.172-3.626   c-0.902-2.776-1.866-12.262-1.229-19.513c0.248,0.653,0.553,1.277,0.938,1.81c1.876,2.586,6.08,3.75,6.258,3.798   c0.085,0.023,0.173,0.035,0.262,0.035h15.882c0.486,1.368,1.101,2.694,1.886,4.025c1.438,2.458,3.813,3.925,6.353,3.925h46.141   c2.54,0,4.914-1.467,6.351-3.922c0.786-1.333,1.401-2.659,1.888-4.028h15.882c0.089,0,0.177-0.012,0.262-0.035   c0.178-0.048,4.382-1.212,6.259-3.8c0.383-0.531,0.688-1.152,0.935-1.804C118.285,77.661,117.322,87.136,116.421,89.909z    M111.489,52.015c-1.362-1.905-2.524-3.403-3.123-4.158l0.461-0.066c1.659-0.227,2.885-1.612,2.914-3.297   c0.051-3.679,0.588-5.132,0.894-5.406c1.069-0.952,7.663-1.401,10.087,0.776c0.749,0.675,1.201,1.908,1.271,3.469   c0.11,2.468-0.751,5.347-2.005,6.697C120.603,51.524,115.026,52.032,111.489,52.015z"/><path d="M36.233,75.233c0.015,0.028,0.025,0.056,0.04,0.084c0.329,0.617,0.729,1.243,1.183,1.856   c1.288,1.752,3.369,2.798,5.565,2.798h39.961c2.196,0,4.277-1.046,5.563-2.795c0.458-0.618,0.857-1.246,1.182-1.853   c0.016-0.029,0.027-0.059,0.043-0.089c0.001-0.003,0.003-0.005,0.004-0.007c0.957-1.77,1.448-3.591,1.448-5.416   c0-1.858-0.503-3.712-1.484-5.494c-0.33-0.629-0.72-1.245-1.189-1.878c-1.288-1.752-3.368-2.798-5.565-2.798H43.021   c-2.197,0-4.277,1.046-5.563,2.794c-0.472,0.637-0.861,1.252-1.182,1.863c-0.016,0.029-0.027,0.06-0.043,0.089   c-0.001,0.002-0.002,0.005-0.003,0.007c-0.957,1.77-1.448,3.591-1.448,5.416c0,1.825,0.491,3.647,1.448,5.416   C36.231,75.229,36.232,75.231,36.233,75.233z M37.78,65.78h50.444c0.489,1.004,0.806,2.017,0.928,3.03H36.85   C36.972,67.801,37.29,66.789,37.78,65.78z M82.982,77.97H43.021c-1.563,0-3.041-0.741-3.956-1.985   c-0.036-0.048-0.065-0.097-0.1-0.145h48.073c-0.036,0.049-0.065,0.099-0.102,0.148C86.023,77.229,84.544,77.97,82.982,77.97z"/></g></svg>