<?xml version="1.0" encoding="UTF-8"?>
<svg version="1.1" xmlns="http://www.w3.org/2000/svg" width="128" height="128">
<path d="M0 0 C1.71053309 -0.00711533 3.42106383 -0.01481629 5.1315918 -0.02307129 C8.70205335 -0.03645625 12.27229396 -0.03811123 15.84277344 -0.03222656 C20.39543796 -0.0263259 24.94703778 -0.05696469 29.49949646 -0.09734344 C33.02736014 -0.12331225 36.55497019 -0.12608978 40.08291626 -0.12245178 C41.76049482 -0.12413341 43.43808631 -0.13368271 45.11557007 -0.15159607 C62.76839875 -0.31943827 62.76839875 -0.31943827 70.3125 5.46875 C75.60541819 11.10671243 78.53749188 16.54611526 78.61889648 24.38549805 C78.63488388 25.55408859 78.65087128 26.72267914 78.66734314 27.92668152 C78.67270584 29.1819313 78.67806854 30.43718109 78.68359375 31.73046875 C78.69262222 33.03143997 78.7016507 34.33241119 78.71095276 35.67280579 C78.7274132 38.42569451 78.73513683 41.1784621 78.73803711 43.93139648 C78.74340299 47.43389818 78.7810183 50.93523669 78.82678127 54.43741131 C78.86395731 57.80592172 78.86507901 61.17426059 78.87109375 64.54296875 C78.89062607 65.78809738 78.91015839 67.03322601 78.93028259 68.31608582 C78.89069739 76.02995281 77.88691426 82.09865191 73.3125 88.46875 C64.73822101 96.60484894 55.64802746 97.65204611 44.25 97.71875 C43.36505859 97.739375 42.48011719 97.76 41.56835938 97.78125 C36.73775097 97.8102409 33.12389073 97.81933734 29.3125 94.46875 C28.875 91.40625 28.875 91.40625 29.3125 88.46875 C31.83966041 85.94158959 32.75846343 86.2079684 36.2578125 86.16015625 C37.25296875 86.13501953 38.248125 86.10988281 39.2734375 86.08398438 C41.35931938 86.04921968 43.44526174 86.01788952 45.53125 85.99023438 C51.7794792 85.82559594 56.7296221 85.39696324 62.3125 82.46875 C67.49891807 76.96118253 66.87775173 71.06224587 66.80859375 63.80859375 C66.8107766 61.97464806 66.8107766 61.97464806 66.81300354 60.10365295 C66.81134649 57.52407442 66.79980711 54.94448581 66.77905273 52.36499023 C66.7500769 48.41672812 66.75845361 44.4698073 66.77148438 40.52148438 C66.76524741 38.01301431 66.75685681 35.50454848 66.74609375 32.99609375 C66.74902939 31.81579086 66.75196503 30.63548798 66.75498962 29.41941833 C66.74230545 28.31800003 66.72962128 27.21658173 66.71655273 26.08178711 C66.70844826 24.63333656 66.70844826 24.63333656 66.70018005 23.15562439 C66.23865842 19.95697992 65.18897828 18.07975318 63.3125 15.46875 C58.27251127 11.75507409 53.45726685 11.34600185 47.33569336 11.32348633 C46.15353745 11.31710648 44.97138153 11.31072662 43.75340271 11.30415344 C42.48255325 11.30304062 41.2117038 11.3019278 39.90234375 11.30078125 C37.92470787 11.29578865 37.92470787 11.29578865 35.90711975 11.29069519 C33.11556176 11.28471602 30.32403465 11.28285382 27.5324707 11.28344727 C23.98798118 11.28354831 20.44369459 11.26995128 16.89925289 11.25267506 C14.14597195 11.24144618 11.39273819 11.23953143 8.63943672 11.24005699 C6.70768364 11.2383307 4.77594529 11.22755227 2.84422302 11.21650696 C-9.55148973 11.24817641 -20.65148969 12.04515872 -30.6875 19.78125 C-32.94311481 22.39447952 -32.94311481 22.39447952 -33.3125 25.96875 C-32.5037679 30.49764975 -31.34703965 31.70542414 -27.6875 34.46875 C-17.55324421 40.39369876 -7.8685871 39.95343602 3.3125 37.46875 C4.3025 37.13875 5.2925 36.80875 6.3125 36.46875 C6.3125 35.80875 6.3125 35.14875 6.3125 34.46875 C-0.09480495 31.60114499 -5.10249119 31.16214168 -12.0625 31.46875 C-13.84060671 31.54506359 -15.61934162 31.60823842 -17.3984375 31.65625 C-18.17493652 31.69105469 -18.95143555 31.72585937 -19.75146484 31.76171875 C-20.39035645 31.66503906 -21.02924805 31.56835938 -21.6875 31.46875 C-23.6875 28.46875 -23.6875 28.46875 -23.75 25.46875 C-22.6875 22.46875 -22.6875 22.46875 -20.0625 20.59375 C-9.81657407 17.08026 1.69399431 19.14932846 11.3125 23.46875 C15.64969925 25.62874407 18.18086257 28.07325246 20.3125 32.46875 C20.69345093 35.86347961 20.69345093 35.86347961 20.70068359 39.79418945 C20.70594055 40.51358704 20.71119751 41.23298462 20.71661377 41.97418213 C20.7297769 44.34368854 20.72108637 46.71251841 20.7109375 49.08203125 C20.71295997 50.73723987 20.71587285 52.39244762 20.71963501 54.0476532 C20.72405392 57.51517224 20.71764382 60.98245916 20.70361328 64.44995117 C20.68656169 68.87829081 20.69633953 73.3060833 20.71433067 77.73440266 C20.72521461 81.15323443 20.72170044 84.57193835 20.7139473 87.99077415 C20.71195592 89.62253065 20.71436697 91.25429902 20.72138596 92.88604164 C20.75271107 102.21881425 20.66282807 109.84019885 15.75 118.09375 C6.99192262 126.62726129 -2.64659456 128.87727255 -14.42895508 128.83447266 C-24.58169964 128.62171688 -33.34063477 125.72897767 -40.6875 118.46875 C-43.17467756 115.26578587 -44.56419059 112.27026114 -45.1875 108.21875 C-45.38027326 105.32287289 -45.38027326 105.32287289 -47.75 104.03125 C-49.6875 102.46875 -49.6875 102.46875 -50.125 98.90625 C-49.980625 97.771875 -49.83625 96.6375 -49.6875 95.46875 C-48.2025 94.47875 -48.2025 94.47875 -46.6875 93.46875 C-46.10756301 91.27420319 -46.10756301 91.27420319 -46 88.84375 C-45.93425781 88.02648437 -45.86851563 87.20921875 -45.80078125 86.3671875 C-45.76339844 85.74070312 -45.72601563 85.11421875 -45.6875 84.46875 C-47.0075 83.80875 -48.3275 83.14875 -49.6875 82.46875 C-49.875 79.09375 -49.875 79.09375 -49.6875 75.46875 C-48.2025 74.47875 -48.2025 74.47875 -46.6875 73.46875 C-46.10756301 71.27420319 -46.10756301 71.27420319 -46 68.84375 C-45.93425781 68.02648437 -45.86851563 67.20921875 -45.80078125 66.3671875 C-45.76339844 65.74070312 -45.72601563 65.11421875 -45.6875 64.46875 C-47.0075 63.80875 -48.3275 63.14875 -49.6875 62.46875 C-49.875 59.09375 -49.875 59.09375 -49.6875 55.46875 C-48.6975 54.80875 -47.7075 54.14875 -46.6875 53.46875 C-46.10756301 51.27420319 -46.10756301 51.27420319 -46 48.84375 C-45.90138672 47.61785156 -45.90138672 47.61785156 -45.80078125 46.3671875 C-45.74470703 45.42746094 -45.74470703 45.42746094 -45.6875 44.46875 C-47.0075 43.80875 -48.3275 43.14875 -49.6875 42.46875 C-49.875 39.09375 -49.875 39.09375 -49.6875 35.46875 C-48.6975 34.80875 -47.7075 34.14875 -46.6875 33.46875 C-46.15940805 30.90457018 -45.76844545 28.43236215 -45.4375 25.84375 C-44.28886168 18.64359299 -42.54960836 14.14705395 -36.6875 9.46875 C-35.99269531 8.90800781 -35.29789063 8.34726563 -34.58203125 7.76953125 C-23.99718797 0.03229182 -12.61489965 -0.0064148 0 0 Z M-34.6875 44.46875 C-34.7571423 52.3184851 -34.81038325 60.16814723 -34.84293652 68.01811409 C-34.85856391 71.6635546 -34.87974805 75.30878307 -34.91381836 78.95410156 C-34.94651717 82.47488349 -34.96437501 85.99546201 -34.97213173 89.51638412 C-34.98033732 91.50717635 -35.00373998 93.49788725 -35.02738953 95.48855591 C-35.02761612 96.70936859 -35.02784271 97.93018127 -35.02807617 99.18798828 C-35.03473801 100.25832306 -35.04139984 101.32865784 -35.04826355 102.431427 C-34.4551938 107.42457107 -32.78747038 110.5887737 -28.875 113.71875 C-20.88300261 118.10651327 -12.6144442 119.49823987 -3.7578125 117.19921875 C1.11395808 115.48031102 4.95212127 112.32696262 8.3125 108.46875 C9.36361609 105.31540174 9.43320472 103.11362717 9.42602539 99.80395508 C9.42594986 98.64297806 9.42587433 97.48200104 9.42579651 96.2858429 C9.42063522 95.03264755 9.41547394 93.77945221 9.41015625 92.48828125 C9.4087413 91.20515549 9.40732635 89.92202972 9.40586853 88.60002136 C9.40205405 85.19204759 9.39223291 81.78411657 9.38116455 78.37615967 C9.37092743 74.89726337 9.36636598 71.41836015 9.36132812 67.93945312 C9.35060967 61.11586788 9.33354609 54.29231099 9.3125 47.46875 C8.0946582 47.79182129 6.87681641 48.11489258 5.62207031 48.44775391 C0.72164907 49.6695585 -3.90022412 49.85153064 -8.9375 49.84375 C-9.85901855 49.84431396 -10.78053711 49.84487793 -11.72998047 49.84545898 C-19.07916999 49.72725704 -24.9426393 48.47855343 -31.6875 45.46875 C-32.6775 45.13875 -33.6675 44.80875 -34.6875 44.46875 Z " fill="#000000" transform="translate(49.6875,-0.46875)"/>
<path d="M0 0 C6.57692308 0.57692308 6.57692308 0.57692308 8 2 C8.25 5.4375 8.25 5.4375 8 9 C4.77856724 11.14762184 3.7404533 11.561068 0 11 C-1.875 9.3125 -1.875 9.3125 -3 7 C-2.75925978 3.62963689 -2.41201979 2.41201979 0 0 Z " fill="#000000" transform="translate(99,68)"/>
<path d="M0 0 C1.875 1.6875 1.875 1.6875 3 4 C2.75925978 7.37036311 2.41201979 8.58798021 0 11 C-6.57692308 10.42307692 -6.57692308 10.42307692 -8 9 C-8.25 5.5625 -8.25 5.5625 -8 2 C-4.77856724 -0.14762184 -3.7404533 -0.561068 0 0 Z " fill="#000000" transform="translate(87,58)"/>
<path d="M0 0 C6.57692308 0.57692308 6.57692308 0.57692308 8 2 C8.25 5.4375 8.25 5.4375 8 9 C4.77856724 11.14762184 3.7404533 11.561068 0 11 C-1.875 9.3125 -1.875 9.3125 -3 7 C-2.75925978 3.62963689 -2.41201979 2.41201979 0 0 Z " fill="#000000" transform="translate(99,48)"/>
<path d="M0 0 C1.875 1.6875 1.875 1.6875 3 4 C2.75925978 7.37036311 2.41201979 8.58798021 0 11 C-6.57692308 10.42307692 -6.57692308 10.42307692 -8 9 C-8.25 5.5625 -8.25 5.5625 -8 2 C-4.77856724 -0.14762184 -3.7404533 -0.561068 0 0 Z " fill="#000000" transform="translate(87,38)"/>
<path d="M0 0 C6.57692308 0.57692308 6.57692308 0.57692308 8 2 C8.25 5.4375 8.25 5.4375 8 9 C4.77856724 11.14762184 3.7404533 11.561068 0 11 C-1.875 9.3125 -1.875 9.3125 -3 7 C-2.75925978 3.62963689 -2.41201979 2.41201979 0 0 Z " fill="#000000" transform="translate(99,28)"/>
<path d="M0 0 C1.875 1.6875 1.875 1.6875 3 4 C2.75925978 7.37036311 2.41201979 8.58798021 0 11 C-6.57692308 10.42307692 -6.57692308 10.42307692 -8 9 C-8.25 5.5625 -8.25 5.5625 -8 2 C-4.77856724 -0.14762184 -3.7404533 -0.561068 0 0 Z " fill="#000000" transform="translate(87,18)"/>
<path d="M0 0 C1 1 1 1 1.1875 4.4375 C1 8 1 8 -1 10 C-3.9375 10.4375 -3.9375 10.4375 -7 10 C-9 7.8125 -9 7.8125 -10 5 C-9.3125 2.25 -9.3125 2.25 -8 0 C-5.11795733 -1.44102133 -3.08226581 -0.65580124 0 0 Z " fill="#000000" transform="translate(34,99)"/>
<path d="M0 0 C1 1 1 1 1.1875 4.4375 C1 8 1 8 -1 10 C-3.9375 10.4375 -3.9375 10.4375 -7 10 C-9 7.8125 -9 7.8125 -10 5 C-9.3125 2.25 -9.3125 2.25 -8 0 C-5.11795733 -1.44102133 -3.08226581 -0.65580124 0 0 Z " fill="#000000" transform="translate(49,89)"/>
<path d="M0 0 C1 1 1 1 1.1875 4.4375 C1 8 1 8 -1 10 C-3.9375 10.4375 -3.9375 10.4375 -7 10 C-9 7.8125 -9 7.8125 -10 5 C-9.3125 2.25 -9.3125 2.25 -8 0 C-5.11795733 -1.44102133 -3.08226581 -0.65580124 0 0 Z " fill="#000000" transform="translate(34,79)"/>
<path d="M0 0 C1 1 1 1 1.1875 4.4375 C1 8 1 8 -1 10 C-3.9375 10.4375 -3.9375 10.4375 -7 10 C-9 7.8125 -9 7.8125 -10 5 C-9.3125 2.25 -9.3125 2.25 -8 0 C-5.11795733 -1.44102133 -3.08226581 -0.65580124 0 0 Z " fill="#000000" transform="translate(49,69)"/>
<path d="M0 0 C1 1 1 1 1.1875 4.4375 C1 8 1 8 -1 10 C-3.9375 10.4375 -3.9375 10.4375 -7 10 C-9 7.8125 -9 7.8125 -10 5 C-9.3125 2.25 -9.3125 2.25 -8 0 C-5.11795733 -1.44102133 -3.08226581 -0.65580124 0 0 Z " fill="#000000" transform="translate(34,59)"/>
</svg>
