<svg xmlns="http://www.w3.org/2000/svg" xmlns:xlink="http://www.w3.org/1999/xlink" version="1.1" baseProfile="basic" x="0px" y="0px" viewBox="0 0 660.617 636.9675" xml:space="preserve"><path d="M4.559,200.392c-10.901,51.919-2.1,104.712,24.786,148.654c32.205,52.638,82.98,89.583,142.974,104.031  c18.092,4.356,36.365,6.511,54.515,6.51c19.376,0,38.605-2.461,57.308-7.312c23.635,23.127,52.222,39.846,83.381,48.645  c1.143,0.322,2.29,0.636,3.446,0.939c19.599,5.161,39.47,7.714,59.212,7.714c40.369,0,80.19-10.675,115.989-31.55  c53.308-31.085,91.318-81.067,107.031-140.741c9.99-37.937,9.886-77.408-0.301-114.15c-10.933-39.429-33.166-69.313-63.186-102.055  c-0.051-0.055-0.101-0.108-0.152-0.162c-18.409-19.206-52.894-19.635-97.1-1.203c-20.318,8.472-41.789,20.491-63.399,35.345  c-3.491-7.333-7.392-14.564-11.73-21.655c-17.541-28.669-45.831-59.451-77.61-84.446c-35.107-27.612-70.397-44.753-99.369-48.265  C183.829-6.15,126.09,39.25,83.937,72.408C43.38,104.312,15.189,149.765,4.559,200.392z M55.878,261.561c0.021,0,0.04,0,0.061,0  c5.522,0.033,9.973,4.537,9.94,10.06c-0.012,1.867,0.007,3.75,0.054,5.596c0.14,5.521-4.223,10.11-9.744,10.25  c-0.086,0.002-0.172,0.003-0.258,0.003c-5.405,0-9.854-4.312-9.992-9.747c-0.052-2.053-0.071-4.146-0.06-6.221  C45.912,266,50.383,261.561,55.878,261.561z M49.101,237.592c0.244-1.303,0.502-2.603,0.773-3.899  c1.131-5.405,6.435-8.872,11.836-7.74c5.406,1.131,8.871,6.431,7.74,11.836c-0.242,1.158-0.473,2.317-0.689,3.479  c-0.899,4.808-5.1,8.164-9.818,8.164c-0.61,0-1.229-0.057-1.85-0.172C51.664,248.245,48.086,243.021,49.101,237.592z   M59.781,313.922c5.37-1.3,10.772,1.996,12.074,7.363c1.235,5.098,2.73,10.29,4.442,15.432c1.745,5.24-1.088,10.902-6.328,12.647  c-1.048,0.35-2.113,0.516-3.16,0.516c-4.188,0-8.091-2.651-9.486-6.843c-1.889-5.67-3.539-11.403-4.905-17.041  C51.117,320.629,54.414,315.222,59.781,313.922z M179.781,81.009c-3.237,0-6.415-1.57-8.34-4.47  c-3.055-4.602-1.801-10.808,2.8-13.862l17.382-11.54c4.598-3.056,10.807-1.803,13.862,2.8c3.055,4.602,1.801,10.808-2.8,13.862  l-17.382,11.54C183.602,80.468,181.682,81.009,179.781,81.009z M222.342,273.342c-0.073,0.001-0.146,0.002-0.22,0.002  c-5.423,0-9.876-4.336-9.994-9.784c-0.1-4.607-0.197-9.216-0.293-13.824c-0.114-5.521,4.269-10.091,9.79-10.206  c5.5-0.098,10.091,4.268,10.206,9.79c0.096,4.603,0.193,9.205,0.293,13.809C232.243,268.649,227.863,273.221,222.342,273.342z   M233.24,302.907c0.262,11.359,0.527,22.718,0.793,34.076l0.229,9.818c0.129,5.521-4.242,10.102-9.764,10.23  c-0.079,0.002-0.159,0.003-0.238,0.003c-5.414,0-9.865-4.324-9.992-9.767l-0.229-9.817c-0.266-11.361-0.531-22.722-0.793-34.083  c-0.127-5.521,4.245-10.101,9.767-10.228C228.542,293.025,233.114,297.385,233.24,302.907z M221.378,219.081  c-0.077,0.002-0.154,0.003-0.23,0.003c-5.418,0-9.87-4.329-9.993-9.773l-0.09-4.008c-0.125-5.521,4.249-10.099,9.771-10.224  c0.077-0.002,0.154-0.003,0.23-0.003c5.418,0,9.87,4.329,9.993,9.773l0.09,4.008C231.273,214.379,226.899,218.956,221.378,219.081z   M225.704,420.469c-5.422,0-9.875-4.335-9.994-9.782c-0.257-11.829-0.523-23.659-0.795-35.489  c-0.127-5.521,4.246-10.101,9.768-10.227c5.507-0.11,10.1,4.245,10.227,9.768c0.271,11.838,0.538,23.676,0.797,35.513  c0.12,5.521-4.259,10.095-9.78,10.216C225.851,420.468,225.777,420.469,225.704,420.469z M225.736,111.733  c-0.132,0-0.264-0.002-0.396-0.008c-5.519-0.215-9.817-4.863-9.603-10.382l0.542-13.911c0.216-5.519,4.848-9.856,10.382-9.603  c5.519,0.215,9.817,4.863,9.603,10.382l-0.542,13.911C235.512,107.509,231.079,111.733,225.736,111.733z M137.666,354.082  c5.263-1.659,10.883,1.27,12.539,6.539c2.647,8.416,5.815,16.683,9.418,24.568c2.295,5.024,0.083,10.957-4.94,13.251  c-1.347,0.615-2.76,0.906-4.149,0.906c-3.794,0-7.422-2.17-9.102-5.847c-3.944-8.635-7.411-17.678-10.305-26.879  C129.47,361.352,132.397,355.738,137.666,354.082z M121.468,323.633c-0.663-4.462-1.25-9.057-1.745-13.658  c-0.591-5.491,3.382-10.421,8.873-11.012c5.496-0.592,10.421,3.382,11.012,8.873c0.467,4.334,1.02,8.659,1.644,12.855  c0.812,5.463-2.958,10.55-8.421,11.362c-0.498,0.074-0.994,0.109-1.483,0.109C126.475,332.163,122.206,328.596,121.468,323.633z   M118.534,251.469c0.407-5.509,5.215-9.649,10.71-9.235c5.508,0.407,9.643,5.202,9.235,10.71  c-0.497,6.724-0.749,13.674-0.749,20.658c0,5.522-4.478,10-10,10s-10-4.478-10-10C117.73,266.128,118.001,258.681,118.534,251.469z   M549.61,126.094c11.239,0,19.97,2.878,25.514,8.661c12.117,12.641,9.718,39.888-6.583,74.753  c-17.902,38.292-50.079,80.772-90.603,119.616s-84.326,69.195-123.34,85.462c-35.526,14.812-62.85,16.057-74.965,3.417  c-12.117-12.642-9.717-39.888,6.584-74.754c12.867-27.521,33.108-57.207,58.522-86.151c9.945-11.326,20.682-22.539,32.079-33.464  c40.522-38.844,84.326-69.195,123.34-85.463C519.43,130.136,536.284,126.094,549.61,126.094z M613.623,229.138  c2.911,4.384,5.679,8.987,8.228,13.682c2.636,4.854,0.837,10.924-4.017,13.56c-1.516,0.823-3.151,1.214-4.763,1.214  c-3.549,0-6.984-1.893-8.797-5.23c-2.269-4.177-4.729-8.27-7.314-12.164c-3.054-4.602-1.8-10.808,2.802-13.861  C604.363,223.281,610.569,224.536,613.623,229.138z M400.516,473.976c-1.791,3.398-5.264,5.34-8.855,5.34  c-1.572,0-3.166-0.371-4.653-1.155c-5.289-2.787-10.448-5.784-15.334-8.907c-4.653-2.975-6.015-9.158-3.04-13.812  c2.973-4.653,9.153-6.016,13.812-3.04c4.418,2.823,9.09,5.537,13.887,8.065C401.217,463.043,403.091,469.091,400.516,473.976z   M452.649,430.536c2.658-4.841,8.736-6.61,13.578-3.955c7.732,4.244,15.739,8.019,23.799,11.219  c5.133,2.038,7.641,7.853,5.603,12.985c-1.558,3.921-5.319,6.312-9.297,6.312c-1.229,0-2.477-0.229-3.688-0.709  c-8.823-3.504-17.584-7.634-26.039-12.273C451.764,441.457,449.992,435.378,452.649,430.536z M521.749,376.153  c-1.947,1.913-4.479,2.867-7.008,2.867c-2.589,0-5.176-0.999-7.134-2.991c-2.064-2.102-4.134-4.198-6.219-6.278  c-3.91-3.9-3.917-10.232-0.017-14.142c3.901-3.911,10.234-3.916,14.142-0.017c2.132,2.127,4.248,4.271,6.359,6.419  C525.744,365.951,525.688,372.283,521.749,376.153z M534.806,389.524c3.951-3.859,10.281-3.779,14.141,0.171  c4.03,4.13,8.718,8.923,13.35,13.552c3.907,3.904,3.909,10.235,0.005,14.142c-1.952,1.954-4.513,2.932-7.073,2.932  c-2.559,0-5.116-0.976-7.068-2.927c-4.714-4.71-9.453-9.556-13.525-13.728C530.776,399.713,530.852,393.382,534.806,389.524z   M569.48,290.454c4.781-2.768,10.897-1.139,13.666,3.639c3.091,5.334,6.03,10.828,8.737,16.33  c2.438,4.956,0.397,10.949-4.558,13.388c-1.42,0.698-2.926,1.029-4.407,1.029c-3.691,0-7.241-2.052-8.98-5.587  c-2.509-5.098-5.232-10.189-8.097-15.133C563.073,299.341,564.702,293.222,569.48,290.454z M592.325,335.85  c5.234-1.771,10.907,1.03,12.682,6.26c1.342,3.958,2.604,8.01,3.749,12.043c1.51,5.312-1.573,10.843-6.886,12.353  c-0.914,0.26-1.834,0.384-2.738,0.384c-4.357,0-8.364-2.871-9.614-7.27c-1.056-3.714-2.217-7.444-3.452-11.088  C584.292,343.301,587.095,337.624,592.325,335.85z M330.813,216.205c0.795,5.465-2.991,10.54-8.457,11.334  c-0.487,0.071-0.973,0.105-1.451,0.105c-4.886,0-9.16-3.585-9.883-8.562c-0.593-4.077-1.263-8.219-1.99-12.311  c-0.967-5.438,2.657-10.63,8.095-11.597c5.442-0.966,10.631,2.657,11.597,8.095C329.487,207.568,330.191,211.92,330.813,216.205z   M286.951,71.314c-1.69,3.651-5.305,5.8-9.081,5.8c-1.406,0-2.835-0.298-4.195-0.928l-12.633-5.85  c-5.012-2.32-7.192-8.265-4.872-13.276c2.319-5.012,8.26-7.193,13.276-4.872l12.633,5.85  C287.091,60.358,289.271,66.302,286.951,71.314z"/><path d="M391.918,239.471c-30.32,29.063-56.074,59.423-72.52,85.485c-19.256,30.519-23.5,51.75-12.615,63.105  c4.21,4.392,9.99,6.585,17.31,6.585c11.604,0,27.075-5.515,46.272-16.521c26.734-15.328,58.156-39.775,88.476-68.84  c30.32-29.063,56.074-59.423,72.519-85.484c19.257-30.519,23.501-51.75,12.615-63.105c-10.885-11.352-32.278-8.011-63.581,9.936  C453.659,185.961,422.238,210.408,391.918,239.471z M529.534,174.539c1.061,1.628,1.372,12.998-16.164,40.279  c-15.655,24.354-39.936,52.775-68.369,80.031c-28.433,27.255-57.856,50.312-82.851,64.923c-28.139,16.45-39.46,15.571-40.911,14.472  c-1.072-1.537-1.476-12.885,16.149-40.303c15.655-24.354,39.936-52.777,68.369-80.032c28.433-27.254,57.856-50.311,82.85-64.922  c21.286-12.444,32.948-14.97,38.011-14.97C528.215,174.017,529.155,174.268,529.534,174.539z"/><text x="0" y="524.5740000000001" fill="#000000" font-size="5px" font-weight="bold" font-family="'Helvetica Neue', Helvetica, Arial-Unicode, Arial, Sans-serif">Created by MR POR</text><text x="0" y="529.5740000000001" fill="#000000" font-size="5px" font-weight="bold" font-family="'Helvetica Neue', Helvetica, Arial-Unicode, Arial, Sans-serif">from the Noun Project</text></svg>