<?xml version="1.0" standalone="no"?>
<!DOCTYPE svg PUBLIC "-//W3C//DTD SVG 20010904//EN"
 "http://www.w3.org/TR/2001/REC-SVG-20010904/DTD/svg10.dtd">
<svg version="1.0" xmlns="http://www.w3.org/2000/svg"
 width="1280.000000pt" height="1083.000000pt" viewBox="0 0 1280.000000 1083.000000"
 preserveAspectRatio="xMidYMid meet">
<metadata>
Created by potrace 1.15, written by Peter Selinger 2001-2017
</metadata>
<g transform="translate(0.000000,1083.000000) scale(0.100000,-0.100000)"
fill="#000000" stroke="none">
<path d="M8108 10811 c-39 -31 -106 -218 -138 -386 -6 -33 -22 -94 -35 -135
-14 -41 -36 -124 -50 -185 -67 -285 -149 -663 -171 -790 -27 -153 -46 -203
-83 -222 -62 -30 -80 19 -91 252 -9 176 -24 279 -56 380 -30 94 -106 265 -117
265 -56 0 -273 -33 -278 -42 -9 -14 -28 -119 -36 -195 -3 -29 -9 -53 -12 -53
-3 0 -42 32 -86 71 -137 122 -142 124 -264 123 -75 -1 -122 -7 -160 -20 -87
-31 -87 -40 5 -131 83 -80 124 -152 109 -190 -6 -16 -9 -15 -31 12 -19 24 -31
29 -62 29 -73 -2 -216 -89 -276 -167 -16 -20 -31 -58 -37 -93 -6 -32 -14 -62
-18 -66 -4 -4 -29 -10 -56 -14 -104 -12 -127 -34 -143 -138 -10 -62 -30 -91
-70 -101 -65 -16 -134 -68 -187 -140 -83 -112 -94 -109 -130 37 -13 51 -42
164 -64 251 -23 86 -41 178 -41 203 0 26 -13 107 -30 181 -16 73 -30 149 -30
167 0 18 -9 45 -20 59 -11 14 -86 70 -167 125 -195 132 -198 136 -223 251 -26
120 -41 147 -93 172 -60 28 -677 120 -723 107 -56 -15 -72 -45 -100 -194 -2
-12 -60 -82 -129 -156 -172 -187 -241 -270 -254 -311 -14 -40 0 -175 25 -262
19 -63 75 -371 81 -448 4 -35 1 -62 -6 -71 -6 -8 -42 -17 -79 -21 -97 -10
-198 -32 -250 -55 -122 -54 -162 -123 -172 -296 -6 -107 -7 -113 -47 -180 -23
-38 -57 -87 -75 -108 l-34 -39 -67 16 c-113 29 -147 20 -164 -41 -13 -46 -8
-423 6 -465 17 -49 50 -88 109 -126 27 -17 54 -42 60 -56 17 -37 31 -134 47
-337 20 -241 19 -296 -6 -414 -23 -111 -39 -396 -29 -512 6 -55 13 -79 33
-106 49 -64 59 -111 82 -406 15 -201 19 -377 9 -404 -3 -9 -22 -25 -41 -37
-19 -12 -39 -33 -45 -48 -5 -14 -16 -165 -24 -334 -13 -299 -15 -312 -44 -400
-17 -50 -49 -130 -72 -177 -23 -49 -40 -100 -40 -120 0 -19 15 -71 34 -115 41
-95 51 -130 43 -155 -8 -24 -90 -55 -170 -65 -105 -12 -124 -38 -155 -214 -31
-171 -51 -214 -135 -296 -83 -80 -121 -140 -134 -212 -6 -27 -35 -107 -66
-177 -31 -70 -54 -130 -51 -133 3 -3 -2 -19 -10 -35 -8 -16 -22 -71 -30 -121
-17 -107 -51 -240 -71 -279 -19 -38 -43 -36 -187 13 -117 40 -122 41 -225 37
-141 -6 -189 -27 -228 -97 -35 -63 -48 -68 -220 -74 -103 -4 -142 -10 -178
-26 -92 -41 -230 -169 -292 -272 -37 -62 -37 -74 2 -113 39 -39 41 -54 20
-141 -8 -33 -14 -79 -15 -103 0 -54 16 -68 172 -152 67 -36 126 -72 131 -81 8
-12 -1 -35 -38 -95 -27 -44 -64 -98 -81 -122 -18 -24 -46 -84 -63 -133 -45
-134 -70 -172 -136 -205 -52 -25 -68 -27 -229 -34 -153 -6 -177 -9 -208 -28
-38 -23 -111 -113 -122 -148 -12 -38 -71 -56 -214 -64 -83 -4 -137 -11 -145
-19 -8 -9 -12 -57 -11 -166 2 -271 8 -274 500 -293 l212 -7 52 -33 c80 -50
125 -56 332 -43 322 21 502 63 649 152 165 101 371 193 417 187 19 -2 32 -16
53 -56 37 -73 95 -145 186 -233 96 -94 131 -113 188 -105 58 9 233 64 395 124
152 57 243 76 304 67 22 -4 113 -31 201 -60 162 -54 424 -122 570 -149 44 -8
156 -23 248 -32 151 -16 198 -17 444 -6 317 13 312 12 382 112 62 89 74 94
184 87 51 -4 139 -13 197 -21 307 -44 1246 -70 1715 -46 169 8 623 61 821 95
145 26 434 105 578 159 87 33 258 120 348 178 121 77 160 132 174 239 13 111
48 122 188 64 46 -19 154 -55 239 -80 86 -25 198 -60 249 -79 325 -116 639
-214 758 -236 75 -14 106 -10 303 36 124 28 166 34 265 34 138 0 192 -8 412
-60 264 -62 320 -72 410 -74 96 -1 127 11 214 83 27 23 60 44 74 48 14 3 75
-2 136 -11 61 -9 126 -16 144 -16 41 0 99 24 130 53 82 76 155 386 107 454
-17 25 -62 46 -310 148 -203 84 -204 84 -180 197 9 40 18 86 22 102 5 25 -2
36 -69 101 -42 40 -206 179 -367 309 -375 306 -387 318 -323 332 15 3 32 7 38
9 6 2 84 -4 175 -12 242 -22 618 -7 652 27 15 13 -34 40 -123 66 -220 66 -480
152 -632 210 -236 89 -253 92 -450 71 -272 -29 -387 -35 -798 -47 -217 -5
-434 -12 -482 -13 l-87 -3 -55 -60 c-82 -89 -90 -109 -77 -206 17 -129 14
-217 -9 -261 -11 -20 -24 -66 -29 -101 -17 -120 -43 -136 -190 -117 -53 6
-149 15 -213 18 l-118 6 5 51 c3 28 17 260 30 516 14 256 36 650 50 875 13
226 29 505 35 620 28 563 41 796 55 980 22 306 34 518 50 895 24 532 34 703
60 995 13 149 26 306 30 350 4 44 13 91 20 105 15 27 13 29 36 -45 28 -95 166
-342 210 -380 37 -31 86 -33 122 -5 45 35 52 77 52 300 0 172 -4 228 -24 347
l-25 142 24 50 c44 96 10 217 -91 317 -35 35 -59 67 -59 80 0 12 14 39 31 60
64 80 73 127 40 199 -19 42 -41 67 -130 148 -31 29 -51 55 -49 65 2 9 25 27
51 39 28 14 47 29 47 39 0 44 -178 157 -322 203 -36 12 -71 28 -77 35 -6 7
-14 41 -17 74 -13 126 -50 150 -241 163 -74 5 -142 13 -153 19 -10 5 -21 24
-25 41 -8 36 -57 94 -96 115 -50 26 -42 49 133 384 42 80 79 159 83 175 3 17
20 52 37 78 27 43 30 54 25 99 -8 67 -86 224 -141 285 -70 77 -98 51 -167
-162 -23 -72 -66 -188 -96 -260 -78 -187 -286 -604 -322 -645 l-30 -35 -1 26
c0 15 25 123 55 240 30 118 61 264 69 324 8 61 21 137 30 170 8 33 29 139 46
235 17 96 37 196 46 221 16 50 14 72 -18 159 -13 36 -20 79 -20 125 0 100 -20
120 -188 177 -47 16 -112 31 -145 35 -51 4 -64 2 -87 -16z m229 -130 c68 -33
80 -52 70 -119 -10 -68 -75 -356 -102 -456 -15 -55 -49 -206 -75 -335 -85
-415 -120 -573 -130 -591 -17 -31 -250 -77 -297 -59 l-26 10 6 117 c4 79 14
149 32 217 15 55 33 135 40 177 8 42 20 89 28 105 8 15 18 53 22 83 9 73 45
215 98 391 24 79 50 169 57 199 25 107 72 213 110 253 47 47 81 48 167 8z
m-3812 -379 c66 -11 169 -25 229 -31 150 -15 191 -42 217 -142 20 -77 13 -83
-87 -75 -47 3 -129 16 -181 27 -53 11 -158 31 -233 44 -162 27 -206 44 -220
81 -14 35 -4 80 22 106 24 24 61 22 253 -10z m-190 -248 c50 -8 117 -23 150
-33 33 -11 107 -24 164 -30 170 -18 204 -48 158 -138 -53 -103 -116 -209 -137
-232 -20 -22 -28 -23 -84 -18 -33 4 -169 36 -301 72 -249 68 -294 75 -315 50
-34 -41 23 -73 208 -119 396 -96 432 -110 445 -166 16 -77 81 -352 110 -470
24 -97 31 -148 31 -230 1 -116 -5 -132 -94 -245 -22 -27 -43 -64 -46 -82 -3
-18 -13 -38 -21 -45 -27 -22 -101 -11 -179 27 -79 38 -97 59 -109 130 -10 52
-27 84 -62 117 -31 30 -91 58 -124 58 -37 0 -85 59 -92 113 -4 26 -22 80 -42
120 -62 128 -108 359 -130 653 -11 144 13 190 200 387 114 119 84 111 270 81z
m4649 -65 c19 -36 19 -36 -1 -90 -11 -30 -26 -73 -32 -96 -7 -24 -55 -129
-108 -235 -52 -106 -149 -305 -215 -442 -65 -138 -126 -259 -136 -269 -25 -28
-143 -96 -180 -103 -41 -8 -41 4 -6 89 46 109 573 1143 595 1166 29 31 60 24
83 -20z m-591 -26 c-6 -58 -57 -297 -72 -335 -26 -67 -24 -4 5 157 17 95 54
225 64 225 4 0 5 -21 3 -47z m-3300 -49 c99 -50 227 -151 227 -180 0 -7 -24
-21 -52 -32 -29 -10 -88 -31 -130 -46 -84 -30 -158 -77 -158 -101 0 -29 68
-21 222 26 127 39 163 45 184 31 16 -10 29 -65 49 -202 10 -63 26 -144 36
-180 15 -52 79 -409 79 -442 0 -4 -54 -8 -121 -8 -139 0 -273 -24 -399 -70
-104 -38 -134 -39 -148 -2 -23 56 -63 212 -91 352 -16 80 -42 192 -56 249 -34
131 -32 202 8 234 18 14 36 48 52 96 45 134 170 301 225 301 11 0 44 -12 73
-26z m2230 -61 c73 -77 116 -324 117 -676 0 -157 -6 -181 -71 -257 -67 -80
-85 -76 -113 22 -16 56 -17 58 -65 72 -27 8 -61 22 -75 31 -20 14 -38 16 -87
10 -70 -8 -79 -2 -79 58 0 76 -56 147 -130 167 -21 6 -42 16 -48 23 -5 6 -12
75 -14 152 l-4 140 -46 99 c-26 55 -45 104 -42 108 3 4 22 8 43 8 49 0 100
-36 213 -151 120 -122 149 -126 202 -29 22 40 27 61 23 91 -3 26 1 49 14 74
10 19 19 41 19 48 0 24 24 37 70 37 37 0 51 -5 73 -27z m952 -487 c-13 -93
-33 -196 -44 -230 -11 -33 -25 -93 -31 -131 -14 -90 -25 -109 -39 -72 -17 45
-13 86 24 241 35 148 103 371 111 364 2 -3 -7 -80 -21 -172z m-1690 100 c16
-12 20 -31 25 -112 8 -147 24 -165 155 -174 l80 -5 -1 -50 c0 -27 -4 -79 -9
-115 -7 -59 -5 -67 13 -84 23 -20 46 -19 124 9 37 13 63 16 114 10 95 -10 97
-32 16 -156 -52 -78 -72 -126 -72 -168 -1 -54 -41 -111 -200 -280 l-163 -173
13 -37 c7 -20 39 -95 71 -167 66 -145 82 -219 54 -247 -12 -13 -34 -17 -83
-17 -72 0 -160 27 -308 94 -112 50 -218 75 -358 85 -125 9 -148 18 -188 72
-30 40 -87 298 -108 484 -8 71 -6 110 6 190 19 118 28 138 89 194 53 48 99 71
147 71 46 0 73 -22 92 -72 9 -24 25 -68 36 -100 l21 -56 112 -7 c138 -7 201 2
205 31 4 28 -33 42 -124 46 -45 2 -80 10 -97 21 -38 24 -128 211 -135 277 -4
43 -1 55 18 75 13 14 33 25 45 25 26 0 109 -41 149 -73 l29 -23 -27 -27 c-82
-82 -58 -160 55 -181 24 -4 63 -29 118 -76 46 -39 86 -70 90 -70 13 0 31 24
31 41 0 10 -48 65 -107 123 l-107 106 22 20 c12 12 22 28 22 38 -1 25 -36 99
-53 108 -37 22 -60 124 -48 205 7 44 15 59 46 86 36 31 122 71 156 72 8 1 24
-5 34 -13z m2202 -368 c4 -7 13 -40 18 -73 14 -84 34 -93 229 -101 113 -6 152
-11 168 -23 19 -16 19 -17 -2 -44 -12 -15 -41 -38 -65 -52 -53 -32 -67 -48
-59 -68 12 -34 58 -49 194 -67 160 -22 212 -34 258 -62 38 -23 41 -47 11 -95
-42 -68 -14 -122 109 -210 71 -51 96 -91 80 -133 -10 -27 -76 -100 -91 -100
-4 0 -41 27 -80 61 -40 33 -84 67 -99 75 -25 13 -28 12 -38 -5 -18 -34 4 -64
131 -182 180 -167 216 -203 239 -248 26 -51 26 -116 0 -176 -25 -59 -25 -87 0
-154 33 -85 51 -187 57 -321 5 -123 -6 -233 -27 -254 -40 -40 -180 254 -226
474 -31 147 -40 175 -76 233 -37 57 -63 72 -165 93 -73 15 -135 45 -159 75 -6
8 -14 34 -17 58 -3 27 -17 57 -36 81 -17 22 -31 43 -31 49 0 5 23 31 50 57 70
66 75 90 62 295 -16 254 -12 249 -367 430 -121 61 -234 122 -252 135 -37 28
-36 33 14 106 18 28 33 55 33 62 0 17 60 73 90 85 34 13 38 13 47 -1z m-799
-84 c33 -23 70 -102 93 -201 12 -48 28 -100 36 -116 20 -40 13 -61 -56 -163
-69 -102 -79 -130 -56 -159 15 -19 16 -19 52 25 70 85 198 207 243 231 75 39
190 89 206 89 22 0 0 -37 -103 -177 -49 -65 -96 -130 -106 -145 -32 -50 -15
-88 24 -55 9 6 43 46 76 87 63 79 247 260 263 260 24 0 333 -147 383 -182 27
-20 28 -21 10 -40 -16 -18 -167 -139 -319 -255 -120 -92 -227 -86 -519 27
l-136 53 -124 -42 c-70 -24 -145 -42 -171 -43 -41 0 -51 3 -70 28 -94 117
-166 376 -168 601 -1 84 1 93 23 117 29 31 72 44 196 61 129 18 196 18 223 -1z
m-4086 -144 c21 -6 40 -16 44 -22 4 -6 11 -51 15 -99 12 -125 30 -147 128
-155 108 -10 100 -1 103 -117 l3 -102 84 -42 c71 -35 212 -80 336 -108 37 -8
90 -65 167 -180 54 -80 60 -94 55 -130 -6 -59 -42 -127 -97 -184 -53 -55 -141
-202 -170 -283 -16 -45 -17 -56 -6 -73 27 -40 41 -28 89 75 52 108 92 162 141
187 17 9 100 42 185 75 l155 59 156 -36 c201 -46 232 -46 341 -1 106 44 180
56 334 55 125 0 199 -9 217 -27 15 -15 -20 -61 -72 -97 l-42 -29 -63 17 c-96
26 -150 22 -212 -13 -28 -16 -58 -42 -65 -57 -25 -53 -190 -133 -273 -133 -66
0 -93 -15 -165 -89 -61 -63 -70 -68 -148 -91 l-83 -23 -21 20 c-11 11 -28 51
-39 88 -21 76 -43 115 -64 115 -25 0 -28 -66 -9 -188 32 -208 31 -227 -14
-334 -22 -52 -56 -121 -76 -152 -35 -55 -38 -57 -69 -51 -18 4 -84 29 -147 57
-245 108 -283 121 -357 127 -91 8 -111 25 -121 102 -4 30 -5 196 -2 369 6 368
-2 340 128 485 69 76 79 92 67 104 -24 24 -65 3 -143 -72 l-74 -72 -81 0
c-119 0 -172 11 -211 46 -108 94 -302 105 -441 23 -22 -13 -73 -53 -113 -89
-49 -44 -81 -65 -98 -65 -86 0 -165 236 -119 355 20 53 41 65 118 65 81 1 104
16 197 136 47 60 93 110 101 112 8 1 33 -11 54 -28 43 -34 83 -38 144 -14 22
9 48 14 58 12 10 -2 35 -36 59 -78 43 -78 83 -115 105 -93 16 16 1 55 -57 153
l-47 79 -56 7 c-72 8 -130 33 -193 84 -28 22 -57 40 -64 40 -36 0 -23 104 21
172 33 50 113 87 223 103 112 16 139 17 184 5z m3556 -77 c6 -16 16 -71 22
-123 40 -326 158 -600 261 -600 13 0 99 27 191 61 l168 61 85 -46 c96 -53 210
-86 299 -86 64 -1 142 -13 153 -24 11 -11 6 -104 -7 -137 -7 -16 -25 -36 -40
-44 -53 -28 -445 -83 -740 -104 -156 -12 -730 -43 -821 -45 -76 -1 -104 19
-122 87 -26 97 -79 292 -84 310 -12 39 28 14 78 -50 74 -94 170 -194 180 -187
18 11 -91 197 -168 288 -59 70 -55 78 168 322 149 164 335 344 354 344 7 0 17
-12 23 -27z m-1968 -131 c54 -26 50 -45 -22 -93 -59 -41 -207 -111 -292 -139
-63 -21 -74 17 -21 74 14 15 25 31 25 37 0 19 -41 49 -68 49 -36 0 -78 28 -63
43 15 15 226 44 326 46 58 1 90 -4 115 -17z m145 -176 c9 -13 25 -72 36 -132
11 -60 29 -137 39 -171 15 -47 50 -253 50 -289 0 -3 -52 -30 -115 -61 -133
-63 -155 -65 -285 -18 -65 24 -90 28 -195 28 -99 1 -130 -3 -176 -20 -74 -28
-85 -19 -58 51 10 28 19 61 19 73 0 12 -38 72 -85 134 -47 62 -85 115 -85 119
0 4 39 19 88 34 398 124 566 186 656 244 60 38 90 40 111 8z m-815 -81 c13
-16 10 -47 -6 -52 -20 -6 -56 31 -49 50 9 21 38 22 55 2z m4322 -80 c8 -18 8
-42 -1 -95 -17 -103 -37 -144 -98 -200 -52 -48 -84 -62 -166 -75 -22 -4 -47
-17 -62 -33 -34 -37 -48 -19 -53 67 -3 51 0 78 13 105 36 75 266 256 326 256
22 0 32 -7 41 -25z m-5418 -505 c68 -64 107 -80 198 -80 117 0 144 -36 113
-149 -17 -59 -17 -60 9 -116 14 -30 28 -72 32 -91 3 -19 -1 -129 -11 -243 -17
-201 -16 -273 6 -287 6 -3 54 -10 107 -14 122 -11 158 -23 362 -120 191 -91
269 -117 300 -100 12 7 62 97 131 238 61 125 121 241 135 259 14 18 53 52 87
75 34 23 80 56 103 74 80 66 41 63 779 57 694 -6 1150 4 1500 33 280 23 769
97 1090 164 160 34 328 68 373 76 82 15 84 15 120 -7 30 -18 57 -23 135 -27
l97 -4 0 -75 c0 -108 -30 -573 -39 -608 l-7 -30 -155 1 c-179 1 -236 13 -245
49 -4 16 0 35 10 50 16 25 20 25 125 24 63 0 117 4 130 10 25 14 71 90 71 118
0 28 -52 70 -98 80 -20 4 -117 8 -214 8 -163 0 -179 -2 -205 -21 -39 -29 -89
-116 -97 -167 -12 -78 52 -244 119 -312 47 -46 92 -64 195 -77 154 -19 161
-48 10 -48 -108 0 -130 -10 -130 -56 0 -33 -17 -64 -34 -64 -25 0 -78 73 -123
169 -108 231 -196 403 -220 432 l-27 32 -81 -5 c-89 -6 -136 -24 -161 -63 -24
-37 -11 -85 57 -206 32 -58 62 -119 65 -136 6 -28 3 -32 -27 -41 -49 -16 -207
-35 -226 -28 -20 8 -14 61 22 221 14 60 25 122 25 137 0 40 -39 62 -106 60
-78 -2 -138 -31 -162 -79 -48 -93 -171 -557 -179 -675 -6 -75 -5 -77 20 -89
33 -15 102 -5 158 24 37 19 49 34 85 106 23 46 51 93 63 105 l22 21 19 -25
c18 -24 22 -25 162 -28 79 -1 153 -5 165 -7 13 -3 33 -24 48 -50 15 -25 41
-57 58 -71 29 -25 36 -26 99 -20 99 9 196 47 235 92 l33 37 82 -11 c117 -17
146 -15 260 13 56 14 107 25 114 25 7 0 16 -17 20 -37 7 -36 -19 -757 -36
-1023 -15 -228 -39 -646 -60 -1060 -11 -217 -34 -629 -50 -915 -17 -286 -37
-639 -45 -785 -23 -392 -33 -521 -60 -770 -13 -124 -34 -322 -45 -440 -35
-358 -58 -498 -88 -554 -55 -101 -198 -175 -511 -265 -224 -64 -441 -109 -686
-140 -126 -16 -259 -34 -295 -40 -94 -15 -550 -31 -960 -34 -321 -2 -382 1
-635 25 -359 35 -548 62 -699 99 -146 36 -202 61 -221 100 -22 42 -91 59 -274
69 -177 8 -182 10 -200 103 -28 136 -45 1060 -21 1123 10 26 12 27 75 21 35
-3 91 -13 125 -22 34 -9 71 -13 83 -9 12 4 46 31 77 60 71 67 95 76 185 68 86
-8 110 2 177 73 52 56 64 94 49 150 -26 93 -69 131 -366 323 -229 147 -312
213 -389 305 l-53 66 -7 182 c-13 377 -26 1619 -18 1792 4 99 6 185 4 192 -6
19 -39 25 -63 12 -22 -11 -22 -12 -16 -237 12 -390 18 -1611 10 -1757 -7 -122
-10 -140 -26 -143 -25 -5 -83 57 -97 103 -10 36 -38 1337 -40 1871 l0 171 -90
36 c-49 21 -129 46 -177 57 -49 12 -118 30 -155 41 -118 35 -188 25 -188 -26
0 -35 29 -52 110 -64 81 -13 371 -88 382 -99 20 -20 29 -188 39 -792 13 -719
7 -1109 -17 -1089 -7 6 -25 47 -39 92 -59 181 -109 273 -165 302 -42 22 -158
19 -227 -5 -66 -23 -113 -26 -113 -7 0 24 62 210 141 425 45 119 94 268 109
331 16 62 36 124 45 137 8 13 15 30 15 38 0 22 -275 198 -333 212 -69 16 -79
78 -102 619 -24 564 -28 729 -21 778 7 44 9 47 37 47 44 0 126 -30 356 -132
191 -84 406 -167 527 -205 45 -14 55 -14 110 1 34 10 90 37 129 64 133 91 116
86 271 89 146 3 218 14 250 38 20 16 56 125 63 197 6 56 -26 135 -61 148 -46
18 -524 110 -569 110 -26 0 -64 -7 -84 -15 -116 -49 -264 -39 -403 25 -47 22
-116 49 -155 61 -104 32 -168 63 -214 105 -59 53 -73 85 -81 192 -8 112 -10
113 -137 162 -48 18 -87 39 -93 50 -14 26 -33 440 -28 596 3 94 8 127 21 148
41 63 223 145 320 146 44 0 53 -4 101 -50z m5347 1 c23 -19 24 -19 5 -40 -25
-27 -107 -66 -229 -107 -214 -73 -360 -102 -768 -154 -178 -22 -351 -47 -384
-56 -91 -23 -289 -32 -875 -39 -504 -6 -543 -6 -675 13 -77 12 -180 24 -230
28 -132 10 -139 14 -85 50 36 24 54 29 104 29 34 -1 93 -9 133 -19 69 -17 74
-17 105 0 18 9 50 26 70 36 71 37 450 48 605 17 39 -8 65 -7 110 5 91 23 212
34 588 56 416 24 496 32 763 71 255 37 374 61 493 98 117 37 233 42 270 12z
m-62 -725 c14 -17 1 -28 -56 -44 -77 -22 -136 -120 -114 -191 22 -72 107 -106
306 -122 148 -12 178 -20 194 -55 14 -32 14 -126 0 -158 -11 -24 -70 -56 -133
-72 -23 -5 -27 -4 -21 7 5 8 22 34 37 58 34 54 35 81 6 108 -38 34 -66 44
-165 59 -144 22 -212 67 -260 171 -49 106 -40 147 41 202 71 48 142 64 165 37z
m-610 -131 c19 -9 42 -40 69 -92 69 -134 200 -427 214 -477 12 -46 12 -49 -11
-67 -49 -40 -116 -13 -178 71 -74 100 -57 93 -196 85 -151 -9 -147 2 15 48
193 55 205 75 112 197 -53 70 -103 158 -118 208 -6 17 -2 24 16 31 33 14 45
13 77 -4z m-379 -118 c-1 -92 -155 -552 -200 -592 -55 -50 -51 53 10 266 23
78 45 174 49 214 9 79 29 118 75 146 39 24 66 10 66 -34z m-4580 -93 c0 -16
-26 -19 -35 -4 -4 6 -4 18 -1 27 5 12 9 13 21 3 8 -7 15 -19 15 -26z m-29
-162 l96 -87 239 -104 c324 -141 405 -179 426 -198 12 -11 18 -31 18 -62 0
-62 22 -93 63 -89 l32 3 0 75 0 75 45 23 c54 27 95 29 105 5 4 -10 10 -89 12
-175 7 -183 5 -188 -66 -188 -122 0 -251 36 -481 135 -80 35 -156 66 -170 70
-14 4 -64 24 -111 45 -47 21 -111 46 -142 55 -71 21 -169 93 -201 148 -32 56
-39 103 -26 181 10 65 48 176 59 176 3 0 49 -40 102 -88z m1285 -324 c4 -6 -3
-19 -17 -29 -68 -50 -71 -59 -36 -109 26 -40 99 -79 146 -80 45 0 95 32 116
76 15 31 15 42 5 80 -7 25 -10 47 -6 51 9 9 81 -15 107 -36 30 -24 29 -72 -4
-145 l-25 -54 -59 -8 c-76 -10 -301 -10 -335 -1 l-28 7 0 120 c0 103 2 120 18
129 24 14 109 14 118 -1z m-1376 -1537 c14 -153 36 -187 123 -182 61 3 197
-69 233 -124 14 -21 14 -32 0 -107 -21 -108 -159 -528 -230 -695 -73 -175 -77
-196 -40 -234 39 -40 67 -38 234 21 l142 50 19 -23 c41 -47 68 -106 89 -192
31 -125 88 -244 144 -298 25 -25 87 -66 138 -92 124 -64 195 -113 299 -206
116 -104 208 -169 369 -259 147 -82 280 -196 280 -239 0 -62 -49 -84 -183 -81
-51 1 -100 2 -110 1 -9 0 -31 -24 -48 -51 -17 -28 -39 -55 -49 -60 -34 -18
-140 -10 -274 19 -146 33 -239 47 -368 56 -78 6 -90 10 -108 32 -29 37 -60
146 -60 211 0 35 -7 71 -20 97 -21 44 -70 350 -90 565 -21 226 -35 264 -103
287 -36 12 -89 9 -222 -12 -56 -9 -71 6 -151 155 -83 156 -111 197 -170 249
-53 46 -122 71 -199 71 -31 0 -60 6 -74 16 -21 15 -23 23 -19 70 3 34 12 62
24 75 22 25 89 61 97 52 9 -8 105 17 165 43 68 30 68 9 -7 288 -33 124 -27
157 46 264 24 35 43 69 43 75 0 33 31 270 36 279 4 6 12 4 21 -5 9 -9 18 -50
23 -116z m-273 -1172 c78 -37 173 -164 238 -318 14 -35 39 -87 55 -115 44 -77
50 -119 60 -398 11 -316 45 -567 75 -561 21 4 23 78 8 288 -9 121 -17 302 -17
402 -1 180 -1 182 24 208 31 35 95 64 137 65 53 0 62 -27 118 -360 20 -118 47
-264 61 -324 37 -165 42 -210 59 -478 17 -279 25 -330 66 -408 l29 -55 -24 -3
c-32 -4 -88 25 -361 188 -280 167 -282 168 -347 180 -92 18 -184 -2 -333 -71
-75 -36 -155 -66 -190 -71 -54 -10 -68 -8 -137 15 -42 15 -121 46 -176 71 -54
24 -116 48 -138 52 -21 4 -69 19 -105 34 -139 58 -356 87 -415 57 -39 -20
-151 -139 -172 -183 -24 -51 -8 -61 121 -72 103 -9 128 -15 114 -28 -3 -4 -86
-12 -184 -20 -98 -7 -192 -18 -210 -24 -41 -15 -114 -1 -224 41 -107 41 -129
63 -129 128 0 27 9 70 20 96 24 56 25 93 5 131 -8 16 -15 38 -15 49 0 48 95
154 168 187 101 46 272 62 340 32 20 -9 65 -20 99 -24 65 -8 129 -36 298 -130
136 -76 284 -118 214 -61 -47 38 -286 186 -374 232 -79 41 -90 50 -93 75 -6
56 16 69 120 72 125 5 229 -20 423 -102 218 -93 209 -91 575 -106 190 -8 258
-15 270 -25 8 -7 39 -56 69 -109 52 -92 104 -156 117 -143 11 11 -16 100 -56
180 -64 127 -138 225 -275 363 -194 195 -258 219 -405 149 -40 -20 -83 -35
-94 -33 -20 3 -21 9 -20 118 1 102 5 123 31 191 16 41 45 102 64 135 19 32 54
107 78 167 49 120 80 157 136 157 53 0 88 -38 130 -140 42 -100 67 -130 93
-114 18 12 29 54 14 54 -9 0 -17 17 -41 92 -7 21 -32 73 -57 115 -47 84 -55
130 -26 156 35 31 117 29 189 -4z m-295 -970 c64 -33 156 -125 170 -171 6 -21
8 -41 4 -45 -23 -24 -359 -19 -442 6 -84 24 -97 61 -42 111 51 47 189 110 261
119 4 1 27 -9 49 -20z m8953 -184 c219 -76 253 -92 238 -105 -12 -10 -471 16
-523 30 -25 6 -59 20 -76 31 -56 34 -167 42 -489 35 -815 -17 -921 -18 -945
-9 l-24 10 21 12 c14 7 149 17 355 26 739 32 847 38 933 45 50 5 135 7 190 5
95 -3 110 -6 320 -80z m-547 -101 c12 -4 22 -13 22 -20 0 -31 -74 -241 -96
-274 -13 -19 -24 -49 -24 -67 0 -65 -13 -79 -77 -87 -32 -4 -112 -13 -178 -21
-173 -20 -726 -48 -875 -43 -185 5 -191 14 -145 195 14 54 25 114 25 133 0 95
39 143 125 155 137 19 1167 43 1223 29z m246 -132 c81 -57 184 -140 277 -222
48 -41 156 -129 240 -195 245 -190 301 -249 301 -321 0 -100 -63 -150 -140
-110 -15 7 -110 39 -212 70 -104 32 -229 79 -285 106 -172 84 -404 260 -432
329 -22 51 -11 93 57 232 33 67 60 129 60 138 0 10 5 22 11 28 14 14 44 0 123
-55z m-7331 -264 c31 -23 40 -119 33 -346 -6 -235 -13 -265 -59 -270 -38 -5
-41 13 -17 89 28 90 26 149 -11 255 -18 53 -33 120 -36 165 -5 69 -4 78 16 98
24 24 49 27 74 9z m226 -22 c13 -13 27 -41 33 -63 13 -48 23 -693 11 -693 -17
0 -112 106 -128 142 -26 63 -15 534 14 611 13 34 40 35 70 3z m-2224 -53 c56
-28 563 -223 581 -223 4 0 85 29 178 64 189 72 312 108 362 108 44 0 187 -76
360 -192 263 -176 304 -215 323 -306 16 -83 20 -87 86 -86 69 0 105 -11 105
-34 0 -9 -23 -53 -51 -97 -94 -146 -153 -296 -135 -343 6 -16 8 -15 26 1 11
10 45 63 76 119 49 87 188 286 199 286 10 0 90 -128 115 -184 48 -106 82 -287
66 -350 -4 -16 -27 -40 -64 -65 -76 -51 -134 -116 -130 -144 4 -32 41 -45 168
-62 62 -8 142 -24 177 -36 35 -11 74 -18 87 -15 13 3 50 33 82 67 61 63 137
119 161 119 8 0 23 -10 33 -22 69 -84 90 -105 137 -139 61 -46 73 -76 50 -125
-29 -61 -48 -66 -245 -72 -174 -5 -496 9 -662 29 -148 17 -382 69 -427 95 -23
13 -55 24 -72 24 -77 0 -399 130 -421 169 -6 12 -14 79 -18 149 -8 121 -10
130 -40 174 -43 63 -117 126 -164 140 -64 19 -101 76 -163 251 -35 97 -201
277 -256 277 -54 0 -38 -39 61 -146 50 -53 90 -105 90 -115 0 -24 -33 -25
-110 -4 -95 25 -138 17 -127 -27 9 -33 57 -58 113 -58 85 0 186 -66 228 -149
40 -76 114 -131 180 -131 78 0 134 -193 108 -370 -7 -43 -10 -46 -72 -79 -81
-43 -289 -114 -401 -137 l-86 -18 -65 32 c-56 27 -76 46 -144 129 -95 118
-237 360 -319 542 -33 74 -72 147 -88 163 -30 30 -72 37 -108 18 -46 -25 -74
-152 -45 -208 26 -51 15 -157 -16 -157 -10 0 -44 37 -78 83 -72 98 -102 116
-246 139 -86 15 -97 15 -138 -1 -50 -19 -70 -44 -80 -101 -10 -53 -37 -102
-82 -148 -35 -37 -39 -38 -88 -34 -28 2 -86 10 -128 17 -97 17 -103 13 -189
-111 -89 -130 -153 -194 -209 -209 -55 -15 -368 -7 -418 11 -41 14 -52 35 -52
101 0 107 53 150 179 146 93 -3 90 -5 216 143 l74 86 168 7 c276 11 326 32
363 156 11 36 29 76 40 89 11 13 20 32 20 43 0 41 89 185 155 250 64 64 109
60 255 -23 106 -59 170 -70 170 -28 0 13 -19 28 -62 50 -108 54 -208 132 -208
162 0 15 59 20 270 27 251 7 301 17 315 60 15 47 -49 96 -217 166 -49 20 -88
40 -88 43 1 37 54 51 175 47 88 -2 107 -6 160 -33z m9036 -131 c64 -33 159
-106 159 -123 0 -12 -136 -107 -195 -135 -83 -40 -137 -34 -468 50 -339 86
-534 140 -586 162 -33 15 -34 17 -16 25 24 11 836 58 956 56 75 -2 93 -6 150
-35z m-1666 -22 c34 -13 30 -26 -57 -220 -38 -85 -72 -169 -75 -187 -5 -28 -1
-34 28 -52 19 -12 68 -34 110 -51 137 -53 752 -206 872 -217 67 -7 78 0 137
88 46 67 138 153 211 196 52 31 151 63 194 63 51 0 102 -24 143 -67 39 -40 43
-49 40 -86 -3 -38 -7 -44 -45 -65 -58 -32 -87 -75 -87 -131 -1 -63 20 -64 75
-6 64 68 89 79 174 72 75 -7 116 -18 430 -119 163 -53 363 -128 384 -145 7 -5
-104 -165 -132 -191 -22 -21 -26 -21 -58 -8 -19 7 -56 17 -84 20 -27 4 -113
22 -190 41 -77 19 -190 41 -252 51 -128 19 -148 17 -408 -40 -181 -40 -212
-42 -345 -21 -130 21 -200 40 -300 80 -47 18 -218 75 -380 125 -162 51 -340
110 -395 132 -55 22 -126 44 -159 49 -88 15 -149 50 -167 97 -6 15 -3 71 6
150 8 70 15 160 15 200 0 108 43 192 118 232 41 21 152 27 197 10z m309 -64
c44 -14 152 -41 240 -61 323 -74 434 -103 494 -130 34 -15 62 -32 62 -38 0 -5
-17 -28 -38 -51 -21 -22 -72 -91 -114 -152 -42 -61 -84 -117 -93 -124 -13 -11
-59 -3 -298 55 -427 102 -566 146 -587 184 -31 59 125 292 222 331 31 12 24
13 112 -14z m1640 -185 c53 -70 60 -104 41 -190 -9 -39 -27 -85 -39 -103 -20
-29 -27 -33 -61 -31 -94 6 -228 138 -211 208 8 31 53 70 141 120 44 25 82 45
85 45 3 0 23 -22 44 -49z m641 -195 c204 -68 435 -148 514 -177 132 -50 145
-57 158 -86 15 -38 2 -167 -23 -215 -37 -72 -122 -138 -178 -138 -14 0 -40 6
-58 14 -18 8 -63 22 -100 31 -43 11 -97 36 -150 69 -118 75 -324 167 -587 262
-104 38 -121 48 -121 74 0 29 49 191 76 249 24 53 24 53 61 47 21 -4 205 -63
408 -130z m-10080 -298 c9 -13 23 -48 32 -78 8 -30 42 -108 76 -174 48 -94 57
-120 46 -127 -32 -20 -173 -69 -199 -69 -35 0 -45 24 -31 77 5 21 13 99 16
173 8 181 13 220 30 220 8 0 21 -10 30 -22z m-397 -152 c21 -11 53 -49 97
-117 90 -139 97 -155 103 -230 l5 -67 -39 -26 c-52 -34 -153 -71 -246 -90 -99
-20 -465 -49 -546 -43 -71 5 -126 36 -141 78 -10 28 1 105 20 142 39 76 88 96
252 107 86 5 135 13 151 23 13 9 44 52 70 96 26 45 61 97 78 117 32 36 33 36
98 32 36 -3 80 -13 98 -22z m10549 -181 c12 -34 -64 -78 -87 -50 -11 13 4 36
35 53 28 16 45 15 52 -3z m-7449 -114 c21 -13 10 -52 -21 -75 -25 -18 -42 -21
-135 -20 -72 0 -117 5 -136 15 -63 31 -40 51 81 73 89 16 192 20 211 7z"/>
<path d="M7049 6881 c-66 -13 -135 -45 -149 -71 -6 -12 -14 -46 -17 -76 -9
-87 -7 -88 216 -128 101 -18 113 -27 81 -61 -28 -30 -109 -61 -182 -71 -64 -9
-101 -41 -118 -105 -16 -60 -7 -116 24 -148 25 -25 32 -26 131 -26 l104 0 145
-73 c104 -53 151 -72 166 -67 23 7 127 88 147 114 27 34 17 56 -74 175 -29 37
-53 73 -53 80 0 6 17 44 37 85 33 64 38 83 38 142 0 59 -4 73 -30 110 -61 86
-140 118 -310 124 -60 2 -131 0 -156 -4z m250 -96 c167 -40 198 -149 85 -305
-35 -48 -27 -85 35 -168 58 -79 76 -115 68 -136 -10 -26 -44 -18 -84 18 -21
18 -48 36 -60 40 -11 4 -50 26 -85 49 l-63 42 -102 -1 c-57 -1 -103 2 -103 7
0 16 66 57 120 74 82 26 165 71 189 101 60 76 -16 155 -181 189 -133 28 -161
44 -125 73 39 33 201 41 306 17z"/>
<path d="M6543 6829 c-18 -5 -40 -20 -49 -33 -14 -23 -14 -28 5 -70 26 -56 37
-141 51 -376 11 -202 25 -307 43 -328 18 -22 122 -11 182 18 55 28 58 35 35
120 -15 54 -19 428 -6 545 7 73 6 82 -12 105 -19 23 -27 25 -119 27 -54 1
-113 -2 -130 -8z m140 -134 c14 -44 14 -515 0 -539 -10 -18 -11 -17 -16 10 -3
16 -9 72 -12 124 -3 52 -13 157 -21 233 -13 122 -12 173 3 200 10 17 37 1 46
-28z"/>
<path d="M6319 6775 c-3 -2 -139 -16 -303 -30 -189 -16 -312 -31 -336 -41 -64
-26 -77 -60 -72 -192 l2 -53 174 3 c162 3 208 -2 179 -20 -30 -19 -36 -69 -36
-304 0 -177 3 -241 13 -253 23 -27 242 -17 272 13 7 7 7 32 0 74 -6 35 -16
137 -22 228 -16 241 -24 260 -107 260 -21 0 -44 4 -52 9 -23 15 15 28 119 41
52 6 140 19 195 29 l100 17 -3 49 c-5 74 -20 124 -47 151 -22 21 -64 32 -76
19z m-63 -105 c25 -10 26 -12 12 -26 -8 -8 -50 -21 -94 -29 -104 -19 -414 -32
-414 -18 0 16 66 30 250 54 91 11 167 23 169 25 8 7 50 4 77 -6z m-176 -329
c16 -30 13 -235 -4 -276 -19 -45 -43 -45 -51 -2 -13 70 -11 263 4 280 18 22
38 21 51 -2z"/>
<path d="M9102 5213 c-16 -30 -21 -109 -42 -583 -48 -1084 -133 -2615 -159
-2875 -25 -240 -44 -558 -36 -595 9 -41 75 -50 90 -12 3 9 10 115 15 237 5
121 12 247 15 280 3 33 14 265 25 515 11 250 34 694 50 985 16 292 39 715 50
940 11 226 28 541 37 700 20 333 20 368 -2 401 -18 28 -31 30 -43 7z"/>
<path d="M8400 5100 c-85 -16 -197 -36 -248 -45 -96 -18 -154 -46 -160 -79 -9
-45 78 -48 250 -6 146 35 328 60 439 60 67 0 82 -3 100 -21 18 -18 21 -29 16
-73 -16 -135 -35 -596 -77 -1831 -20 -583 -30 -862 -41 -1075 -5 -118 -16
-379 -23 -580 -15 -412 -13 -407 -93 -458 -85 -53 -323 -129 -494 -157 -100
-16 -129 -33 -129 -75 0 -50 21 -56 108 -32 42 12 158 42 257 67 212 54 287
86 353 152 43 43 50 56 61 114 12 68 31 517 86 2089 20 542 42 1174 51 1405
16 441 14 510 -16 547 -17 22 -26 23 -152 25 -110 1 -160 -3 -288 -27z"/>
<path d="M4752 5061 c-48 -13 -62 -29 -38 -46 27 -20 102 -33 261 -45 165 -12
242 -23 348 -52 l77 -20 0 -1687 c-1 -1671 -8 -2227 -30 -2287 -12 -33 -36
-49 -84 -57 -28 -5 -279 18 -304 28 -25 9 -235 25 -259 19 -17 -5 -23 -12 -21
-28 4 -27 76 -63 152 -76 102 -16 389 -32 466 -25 91 9 124 24 139 67 26 74
32 484 34 2275 1 1328 -1 1845 -9 1853 -39 40 -636 105 -732 81z"/>
<path d="M6565 5038 c-145 -16 -224 -50 -167 -73 9 -3 189 -10 398 -15 386 -9
479 -15 501 -32 23 -18 24 -116 9 -548 -9 -239 -20 -631 -26 -870 -18 -770
-30 -1224 -45 -1710 -8 -261 -17 -567 -21 -680 -6 -224 -16 -317 -36 -337 -25
-24 -121 -33 -452 -43 -339 -11 -397 -17 -425 -44 -14 -15 -14 -18 2 -34 46
-46 796 -15 929 39 27 11 43 40 52 99 5 34 13 323 36 1320 11 459 31 1189 51
1815 29 932 29 1010 -6 1045 -58 58 -531 98 -800 68z"/>
<path d="M7574 4998 c-11 -17 -16 -164 -74 -2283 -29 -1039 -41 -1407 -51
-1632 -7 -137 -9 -260 -6 -275 8 -30 37 -38 55 -16 12 15 33 670 72 2238 11
432 27 1043 36 1358 13 429 14 579 6 597 -13 27 -27 32 -38 13z"/>
<path d="M5667 4768 c-4 -117 -10 -1060 -14 -2095 -6 -1719 -5 -1883 10 -1883
22 0 26 44 37 500 13 495 25 3390 15 3563 -6 111 -9 127 -24 127 -16 0 -18
-20 -24 -212z"/>
<path d="M3662 1126 c-108 -97 -221 -222 -228 -253 -17 -64 38 -39 157 74 176
168 235 253 176 253 -15 0 -53 -27 -105 -74z"/>
</g>
</svg>
