<svg fill="#000000" height="200px" width="200px" version="1.1" id="Capa_1" xmlns="http://www.w3.org/2000/svg" xmlns:xlink="http://www.w3.org/1999/xlink" viewBox="0 0 256.526 256.526" xml:space="preserve"><g id="SVGRepo_bgCarrier" stroke-width="0"></g><g id="SVGRepo_tracerCarrier" stroke-linecap="round" stroke-linejoin="round"></g><g id="SVGRepo_iconCarrier"> <g> <path d="M109.969,90.603c10.627-28.446,7.958-70.284-23.281-81.644c-7.378-4.798-16.953-7.553-29.16-7.297 C16.758,2.515,3.476,45.935,12.591,79.788C6.164,89.081,1.746,99.707,0.536,108.336c-3.052,21.774,7.243,37.319,22.644,49.26 c-2.313,21.182-5.903,56.332,6.61,76.097c-0.204,0.427-0.282,0.898,0.029,1.366c13.833,20.85,42.056,26.742,62.042,10.464 c26.888-21.899,14.312-68.262,7.727-97.932c5.248-7.15,9.227-15.199,11.419-22.203c3.905-12.472,2.585-23.696-1.928-33.814 C109.458,91.405,109.786,91.092,109.969,90.603z M107.276,87.934c-1.402-2.617-2.95-5.18-4.741-7.641 c6.353-22.069,5.688-45.884-5.571-61.469C114.247,35.126,113.52,64.052,107.276,87.934z M54.395,6.243 C99.323,1.744,107.51,42.477,99.302,76.13c-3.957-4.736-8.528-9.174-13.451-13.321c1.157-0.84,2.129-1.968,2.643-3.464 c1.195-3.476,0.258-7.49-2.62-9.836c-2.386-1.945-5.426-2.475-8.419-2.237c4.297-2.977,6.405-9.343,1.338-12.802 c-2.934-2.004-6.929-2.095-9.775,0.1c-1.299,1.002-2.164,2.306-2.814,3.713c-1.816-5.067-6.312-9.273-11.447-5.589 c-2.587,1.856-3.491,5.598-2.664,8.58c0.438,1.58,1.32,2.958,2.412,4.183c-3.129,0.059-6.464,0.888-8.764,1.758 c-3.664,1.386-6.064,4.439-5.813,8.462c0.057,0.909,0.253,1.79,0.553,2.628c-9.767,1.989-18.737,9.369-25.736,18.518 C12.548,46.67,16.94,9.993,54.395,6.243z M64.18,48.09c0.961-0.14,1.937-0.149,2.862,0.082c3.553,0.888,4.98,4.445,3.829,7.77 c-1.267,3.66-5.049,5.256-8.448,3.21c-1.623-0.977-3.113-2.86-3.272-4.803c-0.171-2.104,1.493-5.073,4.015-4.389 C64.352,50.281,64.916,48.866,64.18,48.09z M5.135,121.211c-0.426-3.684-0.437-7.627,0.133-11.937 C7.644,91.3,23.216,67.41,42.294,61.332c0.998,1.193,2.213,2.213,3.657,2.853c1.727,0.765,3.539,0.944,5.352,0.882 c-0.477,1.371-0.488,2.741-0.301,4.074C39.82,77.09,29.94,87.392,21.426,97.989C16.181,104.517,8.919,112.723,5.135,121.211z M26.001,159.686c2.829,2.039,5.785,3.983,8.858,5.82c0.963,0.576,1.834,0.259,2.368-0.379c1.266-0.187,2.275-1.874,1.158-3.164 c-12.987-14.986-19.517-32.823-19.592-52.654c-0.002-0.573-0.342-0.851-0.738-0.985c3.517-4.858,7.215-9.589,11.188-14.079 c7.075-7.995,15.044-14.79,22.98-21.792c0.844,1.364,1.957,2.583,3.505,3.363c4.953,2.497,9.78-0.147,11.662-4.14 c1.092,1.742,2.568,3.137,4.257,3.841c0.075,0.173,0.047,0.351,0.203,0.514c9.59,10.064,19.26,20.048,26.214,31.674 c-0.034,0.085-0.121,0.096-0.144,0.194c-5.216,22.06-15.867,40.319-30.417,57.514c-0.948,1.121,0.51,2.616,1.621,1.621 c0.103-0.092,0.192-0.197,0.294-0.289c0.057,0.009,0.087,0.06,0.148,0.059c7.071-0.102,13.626-3.179,19.408-7.833 c3.237,28.91,16.549,79.677-25.69,84.172C16.525,248.117,27.227,190.333,26.001,159.686z M103.89,211.777 c-1.629,30.15-27.716,43.929-50.649,36.321c2.441,0.261,5.041,0.336,7.843,0.167c49.009-2.96,35.668-56.778,31.922-89.968 c-0.098-0.868-0.634-1.424-1.278-1.716c2.145-2,4.151-4.224,6.027-6.565C99.427,170.468,104.992,191.387,103.89,211.777z M108.028,121.195c-0.082,0.31-0.194,0.632-0.283,0.945c-4.057-18.921-17.356-33.568-31.679-46.51 c0.568-0.202,1.141-0.471,1.721-0.857c2.682-1.785,3.858-5.394,3.27-8.486c-0.156-0.822-0.502-1.534-0.857-2.239 c0.858,0.183,1.702,0.191,2.513,0.085C98.161,79.837,114.391,97.19,108.028,121.195z"></path> <path d="M147.446,91.574c-4.514,10.118-5.834,21.342-1.928,33.814c2.193,7.004,6.172,15.053,11.419,22.203 c-6.585,29.671-19.16,76.034,7.727,97.932c19.986,16.278,48.209,10.386,62.042-10.464c0.311-0.469,0.233-0.939,0.029-1.366 c12.512-19.765,8.923-54.915,6.61-76.097c15.401-11.941,25.696-27.486,22.644-49.26c-1.209-8.629-5.628-19.256-12.055-28.548 c9.115-33.853-4.167-77.273-44.936-78.126c-12.207-0.256-21.781,2.5-29.16,7.297c-31.239,11.36-33.908,53.198-23.281,81.644 C146.74,91.092,147.068,91.405,147.446,91.574z M159.562,18.824c-11.259,15.585-11.924,39.4-5.571,61.469 c-1.792,2.462-3.339,5.025-4.741,7.641C143.006,64.052,142.279,35.126,159.562,18.824z M241.781,76.823 c-6.999-9.149-15.969-16.529-25.736-18.518c0.3-0.838,0.496-1.719,0.553-2.628c0.251-4.023-2.149-7.076-5.813-8.462 c-2.3-0.87-5.635-1.699-8.765-1.758c1.092-1.225,1.974-2.603,2.412-4.183c0.827-2.981-0.077-6.724-2.664-8.58 c-5.135-3.684-9.631,0.522-11.447,5.589c-0.65-1.407-1.515-2.711-2.814-3.713c-2.846-2.195-6.84-2.103-9.775-0.1 c-5.067,3.459-2.958,9.825,1.338,12.802c-2.993-0.238-6.033,0.292-8.419,2.237c-2.878,2.347-3.815,6.36-2.62,9.836 c0.514,1.496,1.486,2.624,2.643,3.464c-4.924,4.146-9.495,8.585-13.451,13.321c-8.208-33.653-0.021-74.387,44.907-69.888 C239.586,9.993,243.978,46.67,241.781,76.823z M193.36,49.959c2.522-0.684,4.186,2.285,4.015,4.389 c-0.158,1.943-1.648,3.826-3.272,4.803c-3.4,2.046-7.181,0.451-8.448-3.21c-1.151-3.326,0.276-6.882,3.829-7.77 c0.924-0.231,1.901-0.222,2.862-0.082C191.61,48.866,192.174,50.281,193.36,49.959z M235.1,97.989 c-8.514-10.597-18.394-20.9-29.577-28.848c0.187-1.333,0.176-2.704-0.301-4.074c1.813,0.062,3.625-0.117,5.352-0.882 c1.444-0.64,2.659-1.659,3.657-2.853c19.079,6.078,34.651,29.968,37.026,47.942c0.57,4.31,0.559,8.253,0.133,11.937 C247.607,112.723,240.345,104.517,235.1,97.989z M193.242,243.142c-42.238-4.494-28.927-55.262-25.689-84.172 c5.781,4.654,12.336,7.731,19.407,7.833c0.062,0.001,0.091-0.05,0.148-0.059c0.103,0.093,0.191,0.197,0.294,0.289 c1.111,0.995,2.569-0.5,1.621-1.621c-14.55-17.194-25.202-35.454-30.417-57.514c-0.023-0.098-0.11-0.108-0.144-0.194 c6.955-11.626,16.624-21.61,26.214-31.674c0.156-0.164,0.128-0.341,0.203-0.514c1.689-0.704,3.165-2.099,4.257-3.841 c1.882,3.994,6.709,6.637,11.662,4.14c1.548-0.78,2.661-1.999,3.505-3.363c7.937,7.002,15.906,13.797,22.98,21.792 c3.973,4.49,7.671,9.221,11.188,14.079c-0.396,0.134-0.736,0.413-0.738,0.985c-0.075,19.832-6.604,37.668-19.592,52.654 c-1.118,1.29-0.108,2.977,1.158,3.164c0.534,0.638,1.405,0.955,2.368,0.379c3.073-1.837,6.029-3.781,8.857-5.82 C229.299,190.333,240.001,248.117,193.242,243.142z M158.771,150.014c1.876,2.341,3.882,4.565,6.027,6.565 c-0.644,0.292-1.18,0.848-1.278,1.716c-3.747,33.19-17.088,87.008,31.921,89.968c2.802,0.169,5.403,0.095,7.843-0.167 c-22.933,7.608-49.02-6.171-50.649-36.321C151.535,191.387,157.099,170.468,158.771,150.014z M173.813,64.134 c0.812,0.106,1.656,0.099,2.513-0.085c-0.356,0.704-0.701,1.416-0.857,2.239c-0.588,3.092,0.588,6.701,3.27,8.486 c0.58,0.386,1.153,0.655,1.721,0.857c-14.322,12.941-27.621,27.589-31.679,46.51c-0.089-0.313-0.201-0.635-0.283-0.945 C142.135,97.19,158.366,79.837,173.813,64.134z"></path> </g> </g></svg>