<svg xmlns="http://www.w3.org/2000/svg" xmlns:xlink="http://www.w3.org/1999/xlink" version="1.1" x="0px" y="0px" viewBox="0 0 20 25" enable-background="new 0 0 20 20" xml:space="preserve"><path fill="#000000" d="M20,7c0-1.1-0.9-2-2-2h-4V3c0-1.1-0.9-2-2-2H8C6.9,1,6,1.9,6,3v2H2C0.9,5,0,5.9,0,7v5h1v5c0,1.1,0.9,2,2,2  h14c1.1,0,2-0.9,2-2v-5h1V7z M8,3h4v2H8V3z M2,7h16v3H2V7z M17,17H3v-5h2v2h2v-2h6v2h2v-2h2V17z"/><text x="0" y="35" fill="#000000" font-size="5px" font-weight="bold" font-family="'Helvetica Neue', Helvetica, Arial-Unicode, Arial, Sans-serif">Created by ProSymbols</text><text x="0" y="40" fill="#000000" font-size="5px" font-weight="bold" font-family="'Helvetica Neue', Helvetica, Arial-Unicode, Arial, Sans-serif">from the Noun Project</text></svg>