<svg fill="#000000" version="1.1" id="Capa_1" xmlns="http://www.w3.org/2000/svg" xmlns:xlink="http://www.w3.org/1999/xlink" viewBox="0 0 384.001 384.001" xml:space="preserve"><g id="SVGRepo_bgCarrier" stroke-width="0"></g><g id="SVGRepo_tracerCarrier" stroke-linecap="round" stroke-linejoin="round"></g><g id="SVGRepo_iconCarrier"> <g> <g> <path d="M380.646,92.622l-72.221-79.753c-2.185-2.41-5.303-3.792-8.554-3.792H84.127c-3.254,0-6.373,1.383-8.557,3.796 L3.35,92.629l-0.14,0.16C1.14,95.225,0,98.25,0,101.308v66.842c0,5.65,4.596,10.246,10.245,10.246h8.976V364.68 c0,5.648,4.596,10.244,10.246,10.244h325.068c5.648,0,10.245-4.596,10.245-10.244V178.395h8.976 c5.649,0,10.245-4.596,10.245-10.246v-66.842C384,98.092,382.809,95.008,380.646,92.622z M85.216,23.076h213.566l60.893,67.244 H24.326L85.216,23.076z M350.779,360.924H33.221V178.395H350.78L350.779,360.924L350.779,360.924z M370,164.395H14V104.32h356 V164.395z"></path> <path d="M160.008,242.731h63.984c11.529,0,20.909-9.379,20.909-20.91v-0.928c0-11.529-9.38-20.91-20.909-20.91h-63.984 c-11.529,0-20.909,9.381-20.909,20.91v0.928C139.099,233.353,148.479,242.731,160.008,242.731z M153.099,220.896 c0-3.811,3.1-6.91,6.909-6.91h63.984c3.81,0,6.908,3.1,6.908,6.91v0.928c0,3.81-3.1,6.91-6.908,6.91h-63.984 c-3.81,0-6.909-3.101-6.909-6.91V220.896z"></path> </g> </g> </g></svg> 