<?xml version="1.0" encoding="UTF-8"?>
<svg version="1.1" xmlns="http://www.w3.org/2000/svg" width="64" height="64">
<path d="M0 0 C15.18 0 30.36 0 46 0 C46.1875 14.625 46.1875 14.625 46.20776367 19.20556641 C46.11064811 27.06041788 46.11064811 27.06041788 49.48828125 33.8359375 C50.31714844 34.55007812 51.14601562 35.26421875 52 36 C54.09305576 40.18611152 53.42364608 45.44132948 53 50 C50.8419894 54.64802284 47.75998499 57.98983071 43 60 C39.15301695 60.54210732 35.35490031 60.46629117 31.4765625 60.390625 C30.49969482 60.38659668 29.52282715 60.38256836 28.51635742 60.37841797 C24.88571244 60.35757324 21.25533631 60.30172789 17.625 60.25 C9.49875 60.1675 1.3725 60.085 -7 60 C-7 42.84 -7 25.68 -7 8 C-6.01 8 -5.02 8 -4 8 C-4 6.68 -4 5.36 -4 4 C-2.68 4 -1.36 4 0 4 C0 2.68 0 1.36 0 0 Z M-2 6 C-2 6.66 -2 7.32 -2 8 C-1.03175293 7.99887207 -0.06350586 7.99774414 0.93408203 7.99658203 C4.54648591 8.00026926 8.1575654 8.0432045 11.76953125 8.09765625 C13.32901446 8.1157597 14.88865735 8.123395 16.44824219 8.12011719 C31.0840086 8.10142528 31.0840086 8.10142528 35 11.625 C37.19745064 15.33319795 37.78756426 17.59064881 37.875 21.875 C37.93300781 23.60363281 37.93300781 23.60363281 37.9921875 25.3671875 C37.99605469 26.67042969 37.99605469 26.67042969 38 28 C38.66 28 39.32 28 40 28 C40 20.74 40 13.48 40 6 C26.14 6 12.28 6 -2 6 Z M30 13 C30 13.99 30 14.98 30 16 C30.99 15.67 31.98 15.34 33 15 C32.01 14.34 31.02 13.68 30 13 Z M-1 14 C-1 14.66 -1 15.32 -1 16 C0.32 16 1.64 16 3 16 C3 15.34 3 14.68 3 14 C1.68 14 0.36 14 -1 14 Z M5 14 C5 14.66 5 15.32 5 16 C11.6 16 18.2 16 25 16 C25 15.34 25 14.68 25 14 C18.4 14 11.8 14 5 14 Z M-1 20 C-1 20.66 -1 21.32 -1 22 C0.32 22 1.64 22 3 22 C3 21.34 3 20.68 3 20 C1.68 20 0.36 20 -1 20 Z M5 20 C5 20.66 5 21.32 5 22 C11.6 22 18.2 22 25 22 C25 21.34 25 20.68 25 20 C18.4 20 11.8 20 5 20 Z M-1 26 C-1 26.66 -1 27.32 -1 28 C0.32 28 1.64 28 3 28 C3 27.34 3 26.68 3 26 C1.68 26 0.36 26 -1 26 Z M5 26 C5 26.66 5 27.32 5 28 C11.6 28 18.2 28 25 28 C25 27.34 25 26.68 25 26 C18.4 26 11.8 26 5 26 Z M25 37 C23.12144914 40.75710172 23.33620422 44.91978738 24 49 C26.00011167 52.43403788 28.42351494 55.21175747 32 57 C36.30212445 57.62133059 40.33395487 57.97036679 44.1796875 55.73046875 C47.25924341 53.10454037 49.70922689 51.01332773 50.30859375 46.86328125 C50.55928861 41.90256166 50.42919359 38.81249103 47.125 34.9375 C43.98123549 31.71020551 41.81630798 30.79010439 37.3125 30.5625 C31.60897053 30.58729795 28.61666975 32.73078127 25 37 Z M-1 32 C-1 32.66 -1 33.32 -1 34 C6.59 34 14.18 34 22 34 C22 33.34 22 32.68 22 32 C14.41 32 6.82 32 -1 32 Z M-1 38 C-1 38.66 -1 39.32 -1 40 C5.6 40 12.2 40 19 40 C19 39.34 19 38.68 19 38 C12.4 38 5.8 38 -1 38 Z M-1 44 C-1 44.66 -1 45.32 -1 46 C5.6 46 12.2 46 19 46 C19 45.34 19 44.68 19 44 C12.4 44 5.8 44 -1 44 Z M-1 50 C-1 50.66 -1 51.32 -1 52 C5.93 52 12.86 52 20 52 C20 51.34 20 50.68 20 50 C13.07 50 6.14 50 -1 50 Z " fill="#000000" transform="translate(9,2)"/>
<path d="M0 0 C1.64574566 -0.02688151 3.29161413 -0.04634123 4.9375 -0.0625 C5.85402344 -0.07410156 6.77054688 -0.08570313 7.71484375 -0.09765625 C10 0 10 0 11 1 C12.84891946 1.23363881 14.70488031 1.41303635 16.5625 1.5625 C17.57441406 1.64628906 18.58632813 1.73007812 19.62890625 1.81640625 C20.80259766 1.90728516 20.80259766 1.90728516 22 2 C22.125 4.875 22.125 4.875 22 8 C20 10 20 10 18.0546875 10.1953125 C16.03645833 10.13020833 14.01822917 10.06510417 12 10 C13.29299694 12.88437779 14.65941363 14.87219421 17 17 C15.1875 17.6875 15.1875 17.6875 13 18 C11.3125 17 11.3125 17 10 15 C9.3125 11.3125 9.3125 11.3125 9 8 C7.329375 8.061875 7.329375 8.061875 5.625 8.125 C2 8 2 8 0 6 C-0.125 2.875 -0.125 2.875 0 0 Z M2 2 C2.33 2.99 2.66 3.98 3 5 C3.66 5 4.32 5 5 5 C5 4.34 5 3.68 5 3 C5.66 2.67 6.32 2.34 7 2 C5.35 2 3.7 2 2 2 Z M15 4 C15.99 4.495 15.99 4.495 17 5 C17 5.66 17 6.32 17 7 C17.66 7 18.32 7 19 7 C19.33 6.01 19.66 5.02 20 4 C18.35 4 16.7 4 15 4 Z " fill="#000000" transform="translate(35,39)"/>
</svg>
